<svg width="24" height="24" viewBox="0 0 24 24" fill="none" xmlns="http://www.w3.org/2000/svg">
<path d="M5.33333 20C5.33333 20 4 20 4 18.6667C4 17.3333 5.33333 13.3333 12 13.3333C18.6667 13.3333 20 17.3333 20 18.6667C20 20 18.6667 20 18.6667 20H5.33333ZM12 12C13.0609 12 14.0783 11.5786 14.8284 10.8284C15.5786 10.0783 16 9.06087 16 8C16 6.93913 15.5786 5.92172 14.8284 5.17157C14.0783 4.42143 13.0609 4 12 4C10.9391 4 9.92172 4.42143 9.17157 5.17157C8.42143 5.92172 8 6.93913 8 8C8 9.06087 8.42143 10.0783 9.17157 10.8284C9.92172 11.5786 10.9391 12 12 12V12Z" fill="#1C69AD"/>
</svg>
