<svg width="24" height="24" viewBox="0 0 24 24" fill="none" xmlns="http://www.w3.org/2000/svg">
<path d="M15.533 10.2788L14.564 11.2493L17.2505 11.2493C17.4494 11.2493 17.6402 11.3284 17.7808 11.469C17.9215 11.6097 18.0005 11.8004 18.0005 11.9993C18.0005 12.1983 17.9215 12.389 17.7808 12.5297C17.6402 12.6703 17.4494 12.7493 17.2505 12.7493L14.564 12.7493L15.533 13.7183C15.6046 13.7875 15.6618 13.8703 15.7011 13.9618C15.7404 14.0533 15.7611 14.1517 15.7619 14.2513C15.7628 14.3509 15.7438 14.4496 15.7061 14.5418C15.6684 14.634 15.6127 14.7177 15.5423 14.7881C15.4719 14.8586 15.3881 14.9143 15.296 14.952C15.2038 14.9897 15.105 15.0086 15.0054 15.0078C14.9059 15.0069 14.8074 14.9862 14.7159 14.9469C14.6244 14.9076 14.5417 14.8505 14.4725 14.7788L12.2225 12.5288C12.0819 12.3882 12.0029 12.1975 12.0029 11.9986C12.0029 11.7997 12.0819 11.609 12.2225 11.4683L14.4725 9.21835C14.5417 9.14671 14.6244 9.08958 14.7159 9.05027C14.8074 9.01096 14.9059 8.99027 15.0054 8.98941C15.105 8.98854 15.2038 9.00752 15.296 9.04523C15.3881 9.08294 15.4719 9.13863 15.5423 9.20905C15.6127 9.27947 15.6684 9.36321 15.7061 9.45538C15.7438 9.54755 15.7628 9.64631 15.7619 9.7459C15.7611 9.84548 15.7404 9.9439 15.7011 10.0354C15.6618 10.1269 15.6046 10.2097 15.533 10.2788Z" fill="#717171"/>
<path d="M3 7.49805C3 6.7024 3.31607 5.93934 3.87868 5.37673C4.44129 4.81412 5.20435 4.49805 6 4.49805H18C18.7956 4.49805 19.5587 4.81412 20.1213 5.37673C20.6839 5.93934 21 6.7024 21 7.49805V16.501C21 17.2967 20.6839 18.0598 20.1213 18.6224C19.5587 19.185 18.7956 19.501 18 19.501H6C5.20435 19.501 4.44129 19.185 3.87868 18.6224C3.31607 18.0598 3 17.2967 3 16.501V7.49955V7.49805ZM6 5.99805C5.60218 5.99805 5.22064 6.15608 4.93934 6.43739C4.65804 6.71869 4.5 7.10022 4.5 7.49805V16.501C4.5 16.8989 4.65804 17.2804 4.93934 17.5617C5.22064 17.843 5.60218 18.001 6 18.001H9.003V5.99955H6V5.99805ZM10.503 5.99805V18.001H18C18.3978 18.001 18.7794 17.843 19.0607 17.5617C19.342 17.2804 19.5 16.8989 19.5 16.501V7.49955C19.5 7.10172 19.342 6.72019 19.0607 6.43889C18.7794 6.15758 18.3978 5.99955 18 5.99955H10.503V5.99805Z" fill="#717171"/>
</svg>
