<svg xmlns="http://www.w3.org/2000/svg" width="66" height="66" viewBox="0 0 66 66">
  <g id="Grupo_723" data-name="Grupo 723" transform="translate(23741 24879)">
    <circle id="Elipse_292" data-name="Elipse 292" cx="33" cy="33" r="33" transform="translate(-23741 -24879)" fill="#efefef"/>
    <path id="Icon_awesome-user" data-name="Icon awesome-user" d="M15.75,18a9,9,0,1,0-9-9A9,9,0,0,0,15.75,18Zm6.3,2.25H20.876a12.24,12.24,0,0,1-10.252,0H9.45A9.452,9.452,0,0,0,0,29.7v2.925A3.376,3.376,0,0,0,3.375,36h24.75A3.376,3.376,0,0,0,31.5,32.625V29.7A9.452,9.452,0,0,0,22.05,20.25Z" transform="translate(-23723.75 -24864)" fill="#afafaf"/>
  </g>
</svg>
