<svg width="24" height="28" viewBox="0 0 24 28" fill="none" xmlns="http://www.w3.org/2000/svg">
<path d="M13.0273 27.3047C12.6605 27.3047 12.3531 27.1804 12.1054 26.9317C11.8567 26.684 11.7324 26.3767 11.7324 26.0098C11.7324 25.6429 11.8567 25.3355 12.1054 25.0878C12.3531 24.8392 12.6605 24.7148 13.0273 24.7148H20.7969V23.4199H18.207C17.4948 23.4199 16.8853 23.1665 16.3786 22.6598C15.871 22.1522 15.6172 21.5423 15.6172 20.8301V15.6504C15.6172 14.9382 15.871 14.3283 16.3786 13.8207C16.8853 13.3139 17.4948 13.0605 18.207 13.0605H20.7969V11.7656C20.7969 9.26211 19.912 7.12549 18.1423 5.35576C16.3726 3.58604 14.2359 2.70117 11.7324 2.70117C9.22891 2.70117 7.09229 3.58604 5.32256 5.35576C3.55283 7.12549 2.66797 9.26211 2.66797 11.7656V13.0605H5.25781C5.97002 13.0605 6.5795 13.3139 7.08624 13.8207C7.59385 14.3283 7.84766 14.9382 7.84766 15.6504V20.8301C7.84766 21.5423 7.59385 22.1522 7.08624 22.6598C6.5795 23.1665 5.97002 23.4199 5.25781 23.4199H2.66797C1.95576 23.4199 1.34585 23.1665 0.838244 22.6598C0.331498 22.1522 0.078125 21.5423 0.078125 20.8301V11.7656C0.078125 10.1686 0.385453 8.66299 1.00011 7.24894C1.61563 5.83575 2.45215 4.60039 3.50967 3.54287C4.56719 2.48535 5.80254 1.64883 7.21574 1.03331C8.62979 0.418656 10.1354 0.111328 11.7324 0.111328C13.3295 0.111328 14.8351 0.418656 16.2491 1.03331C17.6623 1.64883 18.8977 2.48535 19.9552 3.54287C21.0127 4.60039 21.8492 5.83575 22.4647 7.24894C23.0794 8.66299 23.3867 10.1686 23.3867 11.7656V24.7148C23.3867 25.4271 23.1333 26.037 22.6266 26.5446C22.119 27.0513 21.5091 27.3047 20.7969 27.3047H13.0273ZM2.66797 20.8301H5.25781V15.6504H2.66797V20.8301ZM18.207 20.8301H20.7969V15.6504H18.207V20.8301Z" fill="#1C69AD"/>
</svg>
