<svg width="20" height="20" viewBox="0 0 20 20" fill="none" xmlns="http://www.w3.org/2000/svg">
<path d="M17.8201 3.78928L15.2212 1.19045C15.0981 1.06844 14.9317 1 14.7583 1C14.585 1 14.4186 1.06844 14.2954 1.19045L8.56618 7.14269C8.44551 7.26646 8.37841 7.43275 8.37939 7.6056V10.2044C8.37939 10.3767 8.44784 10.542 8.56968 10.6638C8.69152 10.7857 8.85678 10.8541 9.02909 10.8541H11.6279C11.8008 10.8551 11.9671 10.788 12.0908 10.6674L17.8201 4.71511C17.9421 4.59193 18.0105 4.42556 18.0105 4.25219C18.0105 4.07882 17.9421 3.91246 17.8201 3.78928ZM11.3599 9.55473H9.6788V7.87361L12.8092 4.5202L14.4903 6.20131L11.3599 9.55473ZM15.408 5.2836L13.7269 3.60248L14.7583 2.57107L16.4394 4.25219L15.408 5.2836ZM16.593 9.74522V16.892C16.593 17.2366 16.4561 17.5671 16.2124 17.8108C15.9687 18.0545 15.6382 18.1914 15.2936 18.1914H2.29941C1.95479 18.1914 1.62428 18.0545 1.38059 17.8108C1.1369 17.5671 1 17.2366 1 16.892V3.89785C1 3.55322 1.1369 3.22271 1.38059 2.97903C1.62428 2.73534 1.95479 2.59844 2.29941 2.59844H9.4462C9.61851 2.59844 9.78377 2.66689 9.90561 2.78873C10.0275 2.91057 10.0959 3.07583 10.0959 3.24814C10.0959 3.42046 10.0275 3.58571 9.90561 3.70756C9.78377 3.8294 9.61851 3.89785 9.4462 3.89785H2.29941V16.892H15.2936V9.74522C15.2936 9.5729 15.362 9.40765 15.4839 9.28581C15.6057 9.16396 15.771 9.09551 15.9433 9.09551C16.1156 9.09551 16.2808 9.16396 16.4027 9.28581C16.5245 9.40765 16.593 9.5729 16.593 9.74522Z" fill="#717171"/>
<path d="M3.83521 11.7497H8.56035V10.5684H3.83521V11.7497ZM3.83521 14.7029H10.9229V13.5216H3.83521V14.7029ZM3.83521 8.79645H6.78842V7.61516H3.83521V8.79645Z" fill="#717171"/>
</svg>
