<svg width="15" height="15" viewBox="0 0 15 15" fill="none" xmlns="http://www.w3.org/2000/svg">
<g clip-path="url(#clip0_97_4)">
<path d="M0 11.681V14.754H3.073L12.137 5.69L9.064 2.617L0 11.681ZM14.514 3.313C14.5901 3.23719 14.6504 3.14711 14.6916 3.04793C14.7328 2.94874 14.754 2.8424 14.754 2.735C14.754 2.62761 14.7328 2.52127 14.6916 2.42208C14.6504 2.32289 14.5901 2.23281 14.514 2.157L12.6 0.240004C12.5242 0.163931 12.4341 0.103571 12.3349 0.0623856C12.2357 0.0212004 12.1294 0 12.022 0C11.9146 0 11.8083 0.0212004 11.7091 0.0623856C11.6099 0.103571 11.5198 0.163931 11.444 0.240004L9.944 1.74L13.017 4.813L14.514 3.313Z" fill="#5B5B5B"/>
</g>
<defs>
<clipPath id="clip0_97_4">
<rect width="14.754" height="14.754" fill="white"/>
</clipPath>
</defs>
</svg>
