<svg width="20" height="20" viewBox="0 0 20 20" fill="none" xmlns="http://www.w3.org/2000/svg">
<path d="M18.174 1.82588C17.072 0.723885 16.092 1.04888 16.092 1.04888L7.453 9.68088L6 13.9999L10.317 12.5459L18.951 3.90788C18.951 3.90788 19.275 2.92788 18.174 1.82588V1.82588ZM10.605 11.6049L10.134 12.0749L8.661 12.5749C8.54687 12.297 8.37744 12.0452 8.163 11.8349C7.95246 11.6207 7.70074 11.4513 7.423 11.3369L7.923 9.86388L8.394 9.39388C8.394 9.39388 9.17 9.30488 9.931 10.0669C10.693 10.8279 10.605 11.6049 10.605 11.6049ZM16 16.9999H3V3.99988H8L10 1.99988H3C1.9 1.99988 1 2.89988 1 3.99988V16.9999C1 18.0999 1.9 18.9999 3 18.9999H16C17.1 18.9999 18 18.0999 18 16.9999V9.99988L16 11.9999V16.9999Z" fill="#717171"/>
</svg>
