<svg width="24" height="24" viewBox="0 0 24 24" fill="none" xmlns="http://www.w3.org/2000/svg">
<path d="M14.4704 13.7192L15.4394 12.7487H12.7529C12.554 12.7487 12.3633 12.6697 12.2226 12.529C12.0819 12.3884 12.0029 12.1976 12.0029 11.9987C12.0029 11.7998 12.0819 11.609 12.2226 11.4684C12.3633 11.3277 12.554 11.2487 12.7529 11.2487H15.4394L14.4704 10.2797C14.3988 10.2105 14.3417 10.1278 14.3024 10.0363C14.263 9.94475 14.2424 9.84634 14.2415 9.74675C14.2406 9.64717 14.2596 9.54841 14.2973 9.45624C14.335 9.36406 14.3907 9.28032 14.4611 9.2099C14.5316 9.13948 14.6153 9.08379 14.7075 9.04608C14.7996 9.00837 14.8984 8.9894 14.998 8.99026C15.0976 8.99113 15.196 9.01182 15.2875 9.05112C15.379 9.09043 15.4617 9.14757 15.5309 9.2192L17.7809 11.4692C17.9215 11.6098 18.0005 11.8006 18.0005 11.9995C18.0005 12.1983 17.9215 12.3891 17.7809 12.5297L15.5309 14.7797C15.4617 14.8513 15.379 14.9085 15.2875 14.9478C15.196 14.9871 15.0976 15.0078 14.998 15.0086C14.8984 15.0095 14.7996 14.9905 14.7075 14.9528C14.6153 14.9151 14.5316 14.8594 14.4611 14.789C14.3907 14.7186 14.335 14.6348 14.2973 14.5427C14.2596 14.4505 14.2406 14.3517 14.2415 14.2521C14.2424 14.1526 14.263 14.0541 14.3024 13.9626C14.3417 13.8711 14.3988 13.7884 14.4704 13.7192Z" fill="#717171"/>
<path d="M3 7.49805C3 6.7024 3.31607 5.93934 3.87868 5.37673C4.44129 4.81412 5.20435 4.49805 6 4.49805H18C18.7956 4.49805 19.5587 4.81412 20.1213 5.37673C20.6839 5.93934 21 6.7024 21 7.49805V16.501C21 17.2967 20.6839 18.0598 20.1213 18.6224C19.5587 19.185 18.7956 19.501 18 19.501H6C5.20435 19.501 4.44129 19.185 3.87868 18.6224C3.31607 18.0598 3 17.2967 3 16.501V7.49955V7.49805ZM6 5.99805C5.60218 5.99805 5.22064 6.15608 4.93934 6.43739C4.65804 6.71869 4.5 7.10022 4.5 7.49805V16.501C4.5 16.8989 4.65804 17.2804 4.93934 17.5617C5.22064 17.843 5.60218 18.001 6 18.001H9.003V5.99955H6V5.99805ZM10.503 5.99805V18.001H18C18.3978 18.001 18.7794 17.843 19.0607 17.5617C19.342 17.2804 19.5 16.8989 19.5 16.501V7.49955C19.5 7.10172 19.342 6.72019 19.0607 6.43889C18.7794 6.15758 18.3978 5.99955 18 5.99955H10.503V5.99805Z" fill="#717171"/>
</svg>
