<svg width="33" height="38" viewBox="0 0 33 38" fill="none" xmlns="http://www.w3.org/2000/svg">
<path d="M31.8216 19C31.8216 20.3129 30.766 21.3757 29.4644 21.3757H18.8573V32.0632C18.8573 33.3762 17.8017 34.4375 16.5001 34.4375C15.1986 34.4375 14.143 33.3762 14.143 32.0632V21.3757H3.53585C2.23427 21.3757 1.17871 20.3129 1.17871 19C1.17871 17.6871 2.23427 16.6257 3.53585 16.6257H14.143V5.93824C14.143 4.62531 15.1986 3.5625 16.5001 3.5625C17.8017 3.5625 18.8573 4.62531 18.8573 5.93824V16.6257H29.4644C30.7682 16.625 31.8216 17.6863 31.8216 19Z" fill="white"/>
</svg>
