<svg width="20" height="20" viewBox="0 0 20 20" fill="none" xmlns="http://www.w3.org/2000/svg">
<path d="M18 9.61905C18 5.41181 14.589 2 10.381 2C6.17295 2 2.7619 5.41181 2.7619 9.61905C2.7619 9.95886 2.78476 10.2933 2.82743 10.6217C2.90806 10.3087 3.05988 10.0185 3.27107 9.77371C3.48225 9.52896 3.74709 9.33628 4.04495 9.21067C4.256 5.89943 7.01714 3.2701 10.381 3.2701C13.8819 3.2701 16.7299 6.1181 16.7299 9.61905C16.7299 12.8625 14.2857 15.5451 11.1429 15.9223V16.8571C11.1429 16.9752 11.1322 17.091 11.1116 17.2038C14.9768 16.8358 18 13.5802 18 9.61905ZM10.7566 5.54133C10.7368 5.3979 10.6634 5.26731 10.5511 5.17595C10.4388 5.08458 10.296 5.03926 10.1515 5.04912C10.0071 5.05899 9.87177 5.12332 9.77293 5.22911C9.67409 5.3349 9.61909 5.47427 9.61905 5.61905V10.1905L9.62438 10.2682C9.64316 10.405 9.71084 10.5304 9.81491 10.6211C9.91898 10.7119 10.0524 10.7619 10.1905 10.7619H13.2381L13.3158 10.7566C13.4592 10.7368 13.5898 10.6634 13.6812 10.5511C13.7726 10.4388 13.8179 10.296 13.808 10.1515C13.7982 10.0071 13.7338 9.87177 13.628 9.77293C13.5222 9.67409 13.3829 9.61909 13.2381 9.61905H10.7619V5.61905L10.7566 5.54133ZM3.52381 11.9048H3.14286C2.83975 11.9048 2.54906 12.0252 2.33474 12.2395C2.12041 12.4538 2 12.7445 2 13.0476V14.1905H3.90476V14C3.90476 13.8484 3.96497 13.7031 4.07213 13.5959C4.17929 13.4888 4.32464 13.4286 4.47619 13.4286C4.62774 13.4286 4.77309 13.4888 4.88025 13.5959C4.98742 13.7031 5.04762 13.8484 5.04762 14V14.1905H7.33333V14C7.33333 13.8484 7.39354 13.7031 7.5007 13.5959C7.60787 13.4888 7.75321 13.4286 7.90476 13.4286C8.05631 13.4286 8.20166 13.4888 8.30882 13.5959C8.41599 13.7031 8.47619 13.8484 8.47619 14V14.1905H10.381V13.0476C10.381 12.7445 10.2605 12.4538 10.0462 12.2395C9.83189 12.0252 9.5412 11.9048 9.2381 11.9048H8.85714V11.1429C8.85714 10.7892 8.71667 10.4501 8.46662 10.2C8.21657 9.95 7.87743 9.80952 7.52381 9.80952H4.85714C4.50352 9.80952 4.16438 9.95 3.91433 10.2C3.66429 10.4501 3.52381 10.7892 3.52381 11.1429V11.9048ZM4.66667 11.1429C4.66667 11.0923 4.68673 11.0439 4.72246 11.0082C4.75818 10.9725 4.80663 10.9524 4.85714 10.9524H7.52381C7.57433 10.9524 7.62278 10.9725 7.6585 11.0082C7.69422 11.0439 7.71429 11.0923 7.71429 11.1429V11.9048H4.66667V11.1429ZM2 16.8571V15.3333H3.90476V15.9048C3.90476 16.0563 3.96497 16.2017 4.07213 16.3088C4.17929 16.416 4.32464 16.4762 4.47619 16.4762C4.62774 16.4762 4.77309 16.416 4.88025 16.3088C4.98742 16.2017 5.04762 16.0563 5.04762 15.9048V15.3333H7.33333V15.9048C7.33333 16.0563 7.39354 16.2017 7.5007 16.3088C7.60787 16.416 7.75321 16.4762 7.90476 16.4762C8.05631 16.4762 8.20166 16.416 8.30882 16.3088C8.41599 16.2017 8.47619 16.0563 8.47619 15.9048V15.3333H10.381V16.8571C10.381 17.1602 10.2605 17.4509 10.0462 17.6653C9.83189 17.8796 9.5412 18 9.2381 18H3.14286C2.83975 18 2.54906 17.8796 2.33474 17.6653C2.12041 17.4509 2 17.1602 2 16.8571Z" fill="#717171"/>
</svg>
