<svg width="10" height="13" viewBox="0 0 10 13" fill="none" xmlns="http://www.w3.org/2000/svg">
<path d="M7.91319 17.099C7.69153 17.099 7.50586 17.0239 7.35617 16.8736C7.20596 16.724 7.13086 16.5383 7.13086 16.3166C7.13086 16.095 7.20596 15.9093 7.35617 15.7596C7.50586 15.6094 7.69153 15.5343 7.91319 15.5343H12.6072V14.752H11.0425C10.6122 14.752 10.244 14.5989 9.93788 14.2927C9.6312 13.986 9.47786 13.6176 9.47786 13.1873V10.0579C9.47786 9.62766 9.6312 9.25918 9.93788 8.9525C10.244 8.64635 10.6122 8.49327 11.0425 8.49327H12.6072V7.71094C12.6072 6.19842 12.0726 4.90757 11.0034 3.83838C9.93423 2.76919 8.64337 2.23459 7.13086 2.23459C5.61835 2.23459 4.32749 2.76919 3.2583 3.83838C2.18911 4.90757 1.65451 6.19842 1.65451 7.71094V8.49327H3.21918C3.64947 8.49327 4.01769 8.64635 4.32384 8.9525C4.63052 9.25918 4.78385 9.62766 4.78385 10.0579V13.1873C4.78385 13.6176 4.63052 13.986 4.32384 14.2927C4.01769 14.5989 3.64947 14.752 3.21918 14.752H1.65451C1.22423 14.752 0.85575 14.5989 0.549074 14.2927C0.242921 13.986 0.0898438 13.6176 0.0898438 13.1873V7.71094C0.0898438 6.74606 0.275518 5.83646 0.646866 4.98215C1.01874 4.12836 1.52412 3.38202 2.16303 2.74311C2.80194 2.1042 3.54829 1.59881 4.40207 1.22694C5.25638 0.855596 6.16598 0.669922 7.13086 0.669922C8.09574 0.669922 9.00533 0.855596 9.85964 1.22694C10.7134 1.59881 11.4598 2.1042 12.0987 2.74311C12.7376 3.38202 13.243 4.12836 13.6149 4.98215C13.9862 5.83646 14.1719 6.74606 14.1719 7.71094V15.5343C14.1719 15.9646 14.0188 16.3331 13.7126 16.6397C13.406 16.9459 13.0375 17.099 12.6072 17.099H7.91319ZM1.65451 13.1873H3.21918V10.0579H1.65451V13.1873ZM11.0425 13.1873H12.6072V10.0579H11.0425V13.1873Z" fill="#909090"/>
</svg>
