<svg xmlns="http://www.w3.org/2000/svg" width="23.244" height="18.223" viewBox="0 0 23.244 18.223">
  <path id="Vector" d="M23.178,8.808,20.687,3a.83.83,0,0,0-.764-.506h-2.49V.83A.83.83,0,0,0,16.6,0H.83A.83.83,0,0,0,0,.83V14.943a.83.83,0,0,0,.83.83H2.607a3.321,3.321,0,0,0,6.409,0h5.213a3.321,3.321,0,0,0,6.409,0h1.777a.83.83,0,0,0,.83-.83V9.132A.831.831,0,0,0,23.178,8.808ZM17.433,4.151h1.943L21.152,8.3H17.433ZM5.811,16.6a1.66,1.66,0,1,1,1.174-.486A1.66,1.66,0,0,1,5.811,16.6Zm8.418-2.49H9.015a3.321,3.321,0,0,0-6.409,0H1.66V1.66H15.773V12.087a3.321,3.321,0,0,0-1.544,2.026Zm3.2,2.49a1.66,1.66,0,1,1,1.174-.486A1.66,1.66,0,0,1,17.433,16.6Zm4.151-2.49h-.946a3.321,3.321,0,0,0-3.2-2.49V9.962h4.151Z" fill="#fff"/>
</svg>
