<svg width="24" height="24" viewBox="0 0 24 24" fill="none" xmlns="http://www.w3.org/2000/svg">
<path fill-rule="evenodd" clip-rule="evenodd" d="M6.07713 9.6565C6.08817 8.17644 6.71584 6.75972 7.82486 5.71169L7.05888 5C6.4065 5.60964 5.88868 6.335 5.53531 7.13422C5.18194 7.93343 5 8.79068 5 9.6565C5 10.5223 5.18194 11.3796 5.53531 12.1788C5.88868 12.978 6.4065 13.7034 7.05888 14.313L7.82486 13.6013C6.71584 12.5533 6.08817 11.1366 6.07713 9.6565V9.6565ZM7.2207 9.6565C7.21792 10.2561 7.34248 10.8501 7.58706 11.4036C7.83163 11.9571 8.19127 12.4589 8.64478 12.8794L9.41077 12.1576C9.05618 11.8361 8.77689 11.4482 8.59084 11.0189C8.39946 10.5891 8.30089 10.1277 8.30089 9.66158C8.30089 9.19549 8.39946 8.73407 8.59084 8.30428C8.77411 7.87062 9.05367 7.4789 9.41077 7.15541L8.64478 6.43355C8.19321 6.85544 7.83485 7.35749 7.59042 7.91069C7.34598 8.46389 7.22032 9.05726 7.2207 9.6565V9.6565ZM15.4739 12.9201L14.7079 12.1983C15.0639 11.8729 15.3444 11.4825 15.5278 11.0494C15.7193 10.6196 15.8179 10.1582 15.8179 9.69208C15.8179 9.22598 15.7193 8.76456 15.5278 8.33479C15.3446 7.90112 15.065 7.5094 14.7079 7.18591L15.4739 6.47422C15.9249 6.89643 16.2829 7.39856 16.5272 7.9517C16.7715 8.50483 16.8972 9.09804 16.8972 9.69717C16.8972 10.2963 16.7715 10.8895 16.5272 11.4426C16.2829 11.9958 15.9249 12.4979 15.4739 12.9201V12.9201ZM16.9411 5L16.1751 5.72186C16.729 6.23559 17.1689 6.84805 17.4691 7.52356C17.7694 8.19907 17.924 8.92412 17.924 9.6565C17.924 10.3889 17.7694 11.1139 17.4691 11.7894C17.1689 12.4649 16.729 13.0774 16.1751 13.5911L16.9411 14.313C17.5935 13.7034 18.1113 12.978 18.4647 12.1788C18.8181 11.3796 19 10.5223 19 9.6565C19 8.79068 18.8181 7.93343 18.4647 7.13422C18.1113 6.335 17.5935 5.60964 16.9411 5V5ZM13.6237 9.50399C13.6604 9.85493 13.567 10.207 13.3593 10.5004C13.2698 10.5863 13.1723 10.6645 13.0681 10.7342L16.7793 18.5933L15.7868 19L14.956 17.2411H8.97923L8.14851 19L7.15597 18.5933L10.8672 10.7342C10.6434 10.5204 10.4906 10.2499 10.4274 9.95555C10.3641 9.66124 10.3933 9.35594 10.5112 9.07698C10.6374 8.79631 10.8472 8.55616 11.1153 8.38562C11.3478 8.23953 11.6164 8.15263 11.895 8.13339C12.1736 8.11415 12.4528 8.16322 12.7054 8.27582C12.9579 8.38842 13.1752 8.56071 13.3361 8.77594C13.4971 8.99117 13.5961 9.24199 13.6237 9.50399V9.50399ZM11.9029 9.15831C11.8006 9.18102 11.7072 9.23034 11.6332 9.30065C11.5752 9.36519 11.5345 9.4419 11.5145 9.52433C11.4823 9.62026 11.4823 9.72324 11.5145 9.81917C11.5577 9.91067 11.6246 9.99201 11.7087 10.053C11.7996 10.1057 11.9041 10.1338 12.0108 10.1343C12.153 10.1317 12.2886 10.0774 12.3892 9.98258C12.4897 9.8878 12.5475 9.76001 12.5502 9.626C12.5496 9.52545 12.5198 9.42697 12.4639 9.34132C12.3991 9.26137 12.3137 9.19837 12.2158 9.15831C12.114 9.12792 12.0047 9.12792 11.9029 9.15831V9.15831ZM12.151 11.2426H11.8597L10.9212 13.215H13.0788L12.151 11.2426V11.2426ZM14.5245 16.2651L13.5643 14.2317H10.4572L9.49707 16.2651H14.5245Z" fill="white"/>
</svg>
