<?xml version="1.0" encoding="UTF-8"?>
<!DOCTYPE svg PUBLIC "-//W3C//DTD SVG 1.1//EN" "http://www.w3.org/Graphics/SVG/1.1/DTD/svg11.dtd">
<!-- Creator: CorelDRAW 2020 (64 Bit) -->
<svg xmlns="http://www.w3.org/2000/svg" xml:space="preserve" width="12.6998mm" height="12.6998mm" version="1.1" style="shape-rendering:geometricPrecision; text-rendering:geometricPrecision; image-rendering:optimizeQuality; fill-rule:evenodd; clip-rule:evenodd" viewBox="0 0 1269.98 1269.98" xmlns:xlink="http://www.w3.org/1999/xlink" xmlns:xodm="http://www.corel.com/coreldraw/odm/2003" enable-background="new 0 0 24 24" aria-hidden="true" focusable="false" data-prefix="fas" data-icon="plus" role="img">
 <defs>
  <style type="text/css">
   <![CDATA[
    .str0 {stroke:#298129;stroke-width:20;stroke-miterlimit:22.9256}
    .fil0 {fill:none}
    .fil2 {fill:#FEFEFE}
    .fil1 {fill:#298129}
   ]]>
  </style>
 </defs>
 <g id="Camada_x0020_1">
  <metadata id="CorelCorpID_0Corel-Layer"/>
  <rect class="fil0" width="1269.98" height="1269.98"/>
  <g id="_2334499749664">
   <g>
    <circle class="fil1 str0" cx="248.22" cy="350.02" r="146.82"/>
    <path class="fil2" d="M328.95 329.84l-60.55 0 0 -60.55c0,-7.43 -6.02,-13.45 -13.45,-13.45l-13.46 0c-7.43,0 -13.45,6.02 -13.45,13.45l0 60.55 -60.55 0c-7.43,0 -13.45,6.02 -13.45,13.45l0 13.46c0,7.43 6.02,13.45 13.45,13.45l60.55 0 0 60.55c0,7.43 6.02,13.45 13.45,13.45l13.46 0c7.43,0 13.45,-6.02 13.45,-13.45l0 -60.55 60.55 0c7.43,0 13.45,-6.02 13.45,-13.45l0 -13.46c0,-7.43 -6.02,-13.45 -13.45,-13.45z"/>
   </g>
   <g>
    <path class="fil1" d="M607.29 519.75l-0.04 86.11c11.75,4.23 20.98,7.66 22.1,8.41l60.24 23.98 0.06 -64.74 8.4 -16.03c2.21,-2.09 6.75,-3.62 9.73,-4.76l104.86 -41.44c5.72,-2.26 11.49,-4.5 17.26,-6.76l0.07 -72.01 -222.68 87.24zm338.6 150.73l-0.14 274.02 222.57 -87.35 0.25 -273.9 -222.68 87.23zm-232.16 -103.26l76.03 29.74c3.74,0.4 69.08,-25.52 77.56,-28.98 30.44,-12.42 64.19,-24.75 95.32,-37 17.19,-6.78 42.82,-15.73 57.84,-22.6 -3.16,-2.11 -71.07,-25.65 -77.49,-28.06 -7.92,-2.97 -6.83,-2.31 -19.34,2.82l-57.58 22.84c-12.42,5.25 -25.22,10.09 -37.75,15.04l-104.85 41.44c-2.98,1.14 -7.53,2.67 -9.74,4.76zm132.67 51.52c4.07,3.42 31.33,12.88 38.66,15.97 12.99,5.48 26.47,10.78 39.68,15.58 10.33,3.76 8.84,6.29 20.06,1.56 6.4,-2.7 13.49,-5.06 19.9,-7.72 36.99,-15.33 81.4,-32.17 118.23,-46.6 13.74,-5.39 26.03,-10.2 39.74,-15.59 6.59,-2.59 13.22,-5.41 19.8,-7.82 4.32,-1.58 16.44,-6.03 19.42,-8.08 -3.21,-2.93 -71.9,-29.72 -78.07,-32.35 -17.74,-7.55 -11.56,-5.9 -39.95,5.33 -13.09,5.17 -26.26,10.23 -39.4,15.82 -25.99,11.05 -52.13,20.38 -78.62,31.86l-79.45 32.04zm-69.14 266.83c13.06,5.08 26.41,9.92 39.81,14.95 18.83,7.06 36.89,14.62 55.32,21.79 18.04,7 36.92,15.52 55.18,22.18l0.34 -274.13 -100.24 -39.21 -0.17 68.94c-1.93,-0.42 -7.33,-6.39 -8.63,-8.15l-6.41 1.47c-6.89,-6.64 -3.07,-6.59 -14.16,-5.34l-3.85 -6.03 -7.51 1.2 -0.01 -67.6c-0.99,-0.85 -72.43,-30.09 -81.6,-32.39l-0.05 61.38c21.67,8.62 63.01,25.04 65.48,27.29l6.68 17.21 -0.18 196.44zm-373.12 -457.75l47.03 18.4c3.73,0.4 69.07,-25.52 77.56,-28.98 30.43,-12.42 64.18,-24.75 95.31,-37 17.2,-6.78 42.82,-15.73 57.84,-22.6 -3.16,-2.11 -71.07,-25.65 -77.49,-28.05 -7.92,-2.98 -6.83,-2.32 -19.34,2.81l-57.58 22.84c-12.42,5.25 -25.22,10.09 -37.74,15.04l-77.77 30.74c-1.51,9.36 -4.16,18.35 -7.82,26.8zm103.66 40.18c4.07,3.42 31.33,12.88 38.67,15.97 12.98,5.48 26.46,10.78 39.67,15.58 10.33,3.76 8.84,6.29 20.06,1.56 6.41,-2.7 13.5,-5.06 19.9,-7.72 36.99,-15.33 81.4,-32.16 118.23,-46.6 13.74,-5.39 26.03,-10.2 39.74,-15.59 6.59,-2.59 13.23,-5.41 19.8,-7.82 4.32,-1.58 16.44,-6.03 19.42,-8.08 -3.21,-2.93 -71.9,-29.72 -78.07,-32.35 -17.74,-7.55 -11.56,-5.9 -39.94,5.33 -13.1,5.17 -26.27,10.23 -39.41,15.82 -25.99,11.05 -52.13,20.38 -78.61,31.86l-79.46 32.04zm81.41 131.42l0.1 -79.8 -100.24 -39.21 -0.17 68.94c-1.92,-0.42 -7.33,-6.39 -8.63,-8.15l-6.41 1.48c-6.89,-6.65 -3.07,-6.6 -14.16,-5.35l-3.85 -6.03 -7.51 1.2 -0.01 -67.6c-0.62,-0.53 -29.1,-12.29 -52.43,-21.52 -7.68,12.09 -17.61,22.62 -29.2,30.99l-0.17 180.46 70.66 -27.92c12.53,-4.96 25.33,-9.79 37.75,-15.04l57.58 -22.85c12.51,-5.12 11.42,-5.78 19.34,-2.81 3.06,1.15 20.05,7.08 37.35,13.21z"/>
    <path class="fil1" d="M544.78 792.79l-0.14 274.01 222.57 -87.35 0.25 -273.91 -222.68 87.25zm-232.16 -103.27l76.04 29.74c3.74,0.39 69.07,-25.52 77.56,-28.98 30.43,-12.42 64.19,-24.75 95.31,-37 17.2,-6.78 42.83,-15.74 57.84,-22.6 -3.16,-2.12 -71.07,-25.65 -77.49,-28.06 -7.92,-2.97 -6.83,-2.31 -19.34,2.81l-57.58 22.85c-12.42,5.25 -25.21,10.08 -37.74,15.04l-104.86 41.44c-2.98,1.14 -7.53,2.67 -9.74,4.76zm132.67 51.51c4.08,3.43 31.33,12.89 38.67,15.98 12.98,5.48 26.46,10.78 39.67,15.58 10.34,3.75 8.84,6.29 20.06,1.56 6.41,-2.7 13.5,-5.07 19.91,-7.72 36.98,-15.33 81.39,-32.17 118.22,-46.61 13.75,-5.38 26.03,-10.19 39.74,-15.58 6.59,-2.59 13.23,-5.41 19.8,-7.82 4.32,-1.58 16.44,-6.03 19.42,-8.09 -3.21,-2.92 -71.9,-29.71 -78.07,-32.34 -17.74,-7.55 -11.55,-5.9 -39.94,5.32 -13.1,5.18 -26.27,10.24 -39.41,15.83 -25.98,11.05 -52.12,20.37 -78.61,31.86l-79.46 32.03zm-141.31 238.5l55.63 21.67c18.23,7.65 37.24,14.45 56.35,21.62 18.83,7.06 36.89,14.62 55.32,21.78 18.05,7.01 36.92,15.53 55.18,22.19l0.34 -274.13 -100.23 -39.21 -0.18 68.94c-1.92,-0.42 -7.33,-6.39 -8.63,-8.15l-6.41 1.47c-6.89,-6.64 -3.07,-6.59 -14.16,-5.34l-3.85 -6.04 -7.51 1.21 -0.01 -67.6c-0.99,-0.85 -72.42,-30.09 -81.59,-32.39l-0.25 273.98z"/>
   </g>
  </g>
 </g>
</svg>