<?xml version="1.0" encoding="UTF-8"?>
<!DOCTYPE svg PUBLIC "-//W3C//DTD SVG 1.1//EN" "http://www.w3.org/Graphics/SVG/1.1/DTD/svg11.dtd">
<!-- Creator: CorelDRAW 2020 (64 Bit) -->
<svg xmlns="http://www.w3.org/2000/svg" xml:space="preserve" width="12.6998mm" height="12.6998mm" version="1.1" style="shape-rendering:geometricPrecision; text-rendering:geometricPrecision; image-rendering:optimizeQuality; fill-rule:evenodd; clip-rule:evenodd" viewBox="0 0 1269.98 1269.98" xmlns:xlink="http://www.w3.org/1999/xlink" xmlns:xodm="http://www.corel.com/coreldraw/odm/2003" enable-background="new 0 0 24 24" aria-hidden="true" focusable="false" data-prefix="fas" data-icon="plus" role="img">
 <defs>
  <style type="text/css">
   <![CDATA[
    .str0 {stroke:#298129;stroke-width:20;stroke-miterlimit:22.9256}
    .fil0 {fill:none}
    .fil2 {fill:#FEFEFE}
    .fil1 {fill:#298129}
   ]]>
  </style>
 </defs>
 <g id="Camada_x0020_1">
  <metadata id="CorelCorpID_0Corel-Layer"/>
  <rect class="fil0" width="1269.98" height="1269.98"/>
  <g id="_2408846652144">
   <path class="fil1" d="M805.04 625.29l-0.23 433.03 351.73 -138.04 0.39 -432.85 -351.89 137.86zm-321.03 -145.25l74.31 29.07c5.9,0.63 109.16,-40.33 122.57,-45.8 48.09,-19.63 101.43,-39.11 150.61,-58.48 27.18,-10.7 67.68,-24.85 91.41,-35.7 -4.99,-3.34 -112.31,-40.54 -122.45,-44.34 -12.51,-4.69 -10.8,-3.66 -30.57,4.45l-90.99 36.09c-19.63,8.3 -39.85,15.94 -59.65,23.77l-122.89 48.57c-2.38,14.8 -6.57,29.01 -12.35,42.37zm163.81 63.48c6.44,5.4 49.51,20.36 61.1,25.24 20.52,8.66 41.82,17.04 62.69,24.62 16.34,5.94 13.98,9.94 31.7,2.47 10.13,-4.27 21.34,-8 31.46,-12.21 58.45,-24.22 128.63,-50.82 186.83,-73.64 21.72,-8.52 41.14,-16.11 62.8,-24.62 10.42,-4.1 20.9,-8.56 31.29,-12.36 6.83,-2.5 25.98,-9.53 30.69,-12.78 -5.06,-4.62 -113.62,-46.96 -123.37,-51.12 -28.03,-11.93 -18.26,-9.32 -63.12,8.42 -20.7,8.18 -41.51,16.17 -62.27,25.01 -41.08,17.46 -82.38,32.19 -124.24,50.34l-125.56 50.63zm-223.32 376.88l87.91 34.25c28.81,12.09 58.86,22.83 89.05,34.16 29.76,11.16 58.3,23.11 87.43,34.43 28.52,11.08 58.34,24.54 87.2,35.05l0.54 -433.19 -158.4 -61.97 -0.28 108.94c-3.04,-0.66 -11.58,-10.09 -13.64,-12.87l-10.13 2.33c-10.89,-10.5 -4.85,-10.42 -22.37,-8.44l-6.09 -9.54 -11.87 1.91 -0.02 -106.83c-0.98,-0.84 -45.98,-19.43 -82.85,-34.01 -12.14,19.11 -27.83,35.74 -46.14,48.97l-0.34 366.81z"/>
   <circle class="fil1 str0" cx="290.72" cy="389.35" r="177.69"/>
   <path class="fil2" d="M388.42 364.93l-73.27 0 0 -73.28c0,-8.99 -7.29,-16.29 -16.29,-16.29l-16.28 0c-8.99,0 -16.28,7.3 -16.28,16.29l0 73.28 -73.28 0c-8.99,0 -16.28,7.29 -16.28,16.28l0 16.28c0,8.99 7.29,16.29 16.28,16.29l73.28 0 0 73.27c0,8.99 7.29,16.29 16.28,16.29l16.28 0c9,0 16.29,-7.3 16.29,-16.29l0 -73.27 73.27 0c9,0 16.29,-7.3 16.29,-16.29l0 -16.28c0,-8.99 -7.29,-16.28 -16.29,-16.28z"/>
  </g>
 </g>
</svg>