<?xml version="1.0" encoding="UTF-8"?>
<!DOCTYPE svg PUBLIC "-//W3C//DTD SVG 1.1//EN" "http://www.w3.org/Graphics/SVG/1.1/DTD/svg11.dtd">
<!-- Creator: CorelDRAW 2020 (64 Bit) -->
<svg xmlns="http://www.w3.org/2000/svg" xml:space="preserve" width="12.6998mm" height="12.6998mm" version="1.1" style="shape-rendering:geometricPrecision; text-rendering:geometricPrecision; image-rendering:optimizeQuality; fill-rule:evenodd; clip-rule:evenodd" viewBox="0 0 1269.98 1269.98" xmlns:xlink="http://www.w3.org/1999/xlink" xmlns:xodm="http://www.corel.com/coreldraw/odm/2003" aria-hidden="true" focusable="false" data-prefix="fas" data-icon="car" role="img" enable-background="new 0 0 24 24">
 <defs>
  <style type="text/css">
   <![CDATA[
    .fil0 {fill:none}
    .fil2 {fill:#FEFEFE}
    .fil1 {fill:#298129}
   ]]>
  </style>
 </defs>
 <g id="Camada_x0020_1">
  <metadata id="CorelCorpID_0Corel-Layer"/>
  <rect class="fil0" width="1269.98" height="1269.98"/>
  <g id="_2408978168848">
   <path class="fil1" d="M560.31 488.2l-0.21 396.73 119.23 -46.79 0.01 -55.87c0,-62.52 -1.8,-149.56 -0.01,-210.07 0.89,-30.13 15.78,-31.87 28.84,-40.13l174.39 0 0.15 -170.18 -322.4 126.31zm-336.13 -149.52l110.08 43.06c5.41,0.58 100.01,-36.94 112.3,-41.96 44.06,-17.98 92.93,-35.82 137.99,-53.57 24.9,-9.81 62.01,-22.77 83.75,-32.71 -4.57,-3.06 -102.9,-37.14 -112.19,-40.62 -11.47,-4.31 -9.89,-3.36 -28.01,4.07l-83.36 33.07c-17.98,7.6 -36.51,14.6 -54.65,21.78l-151.82 60c-4.31,1.65 -10.89,3.86 -14.09,6.88zm192.08 74.59c5.9,4.96 45.37,18.66 55.98,23.13 18.8,7.94 38.32,15.61 57.44,22.56 14.96,5.44 12.81,9.11 29.04,2.26 9.28,-3.91 19.55,-7.33 28.83,-11.18 53.55,-22.19 117.85,-46.57 171.17,-67.47 19.9,-7.81 37.69,-14.77 57.54,-22.57 9.54,-3.75 19.15,-7.84 28.66,-11.32 6.26,-2.29 23.81,-8.73 28.12,-11.71 -4.64,-4.23 -104.1,-43.02 -113.03,-46.83 -25.68,-10.93 -16.73,-8.54 -57.83,7.71 -18.96,7.5 -38.03,14.82 -57.06,22.91 -37.63,16 -75.47,29.5 -113.82,46.13l-115.04 46.38zm-204.6 345.3l80.54 31.38c26.39,11.08 53.92,20.92 81.59,31.3 27.27,10.23 53.41,21.17 80.1,31.55 26.13,10.14 53.45,22.47 79.9,32.11l0.49 -396.89 -145.13 -56.78 -0.25 99.81c-2.79,-0.6 -10.62,-9.24 -12.5,-11.79l-9.28 2.14c-9.98,-9.62 -4.45,-9.55 -20.5,-7.74l-5.58 -8.74 -10.87 1.75 -0.02 -97.87c-1.43,-1.23 -104.86,-43.58 -118.13,-46.9l-0.36 396.67z"/>
   <g>
    <polygon class="fil2" points="713.3,592.39 739.43,566.71 943.37,570.25 1057.58,702.85 1056.86,1030.62 1015.87,1054.62 733.91,1050.47 713.3,1022.59 "/>
    <path class="fil1" d="M927.7 575.34c7.34,64.15 -23.27,130.55 48.84,130.51 21.21,-0.01 42.42,0.02 63.63,-0.06 -0.34,40.08 4.7,313.81 -3.48,326.83 -8.92,14.19 -54.26,8.68 -73.47,8.68l-165.31 0c-19.31,0 -63.98,5.91 -72.15,-10.04 -5.65,-11.02 -2.43,-346.5 -2.51,-411.69 -0.04,-38.82 -1.22,-44.32 38.91,-44.2 55.11,0.18 110.43,0.34 165.54,-0.03zm19 11.52c7.43,3.84 26.44,28.32 33.1,36.17l42.02 49.61c2.26,2.85 2.9,3.63 5,6.16l6.27 8.78c-22.61,-0.19 -73.29,7.7 -83.42,-9.76 -6.13,-10.56 -2.97,-73.88 -2.97,-90.96zm-212.79 472.8l295.55 0c19.38,-12.26 28.97,-9.84 28.85,-51.35l-0.76 -320.32c-1.55,-5.33 -4.94,-8.11 -8.27,-11.52l-101.49 -119.45 -213.88 0c-13.07,8.27 -27.95,10.01 -28.84,40.14 -1.79,60.51 0.01,147.54 0.01,210.07l-0.04 210.11c0.51,31.84 14.06,32.96 28.87,42.32z"/>
    <polygon class="fil1" points="760.98,761.22 1002.39,761.22 1002.39,743.77 759.93,743.33 "/>
    <polygon class="fil1" points="760.99,928.74 996.73,929.15 1002.38,928.74 1002.39,911.31 759.93,910.88 "/>
    <polygon class="fil1" points="760.98,817.07 1001.2,817.5 1002.39,799.61 759.93,799.18 "/>
    <polygon class="fil1" points="760.98,872.92 1001.2,873.35 1002.39,855.46 762.17,855.03 "/>
    <polygon class="fil1" points="760.98,984.59 1001.2,984.94 1002.38,967.19 759.93,966.78 "/>
   </g>
  </g>
 </g>
</svg>