<?xml version="1.0"?>
<svg xmlns="http://www.w3.org/2000/svg" xmlns:xlink="http://www.w3.org/1999/xlink" version="1.1" id="Capa_1" x="0px" y="0px" viewBox="0 0 512 512" style="enable-background:new 0 0 512 512;" xml:space="preserve" width="512" height="512" class=""><g><g>
	<g>
		<path d="M452.267,343.707V69.675C452.223,31.214,421.057,0.045,382.596,0H129.404C90.943,0.045,59.777,31.214,59.733,69.675    v274.033c-5.262,3.025-8.513,8.624-8.533,14.693v34.133c0.011,9.421,7.645,17.056,17.067,17.067v76.8    c0.015,14.132,11.468,25.585,25.6,25.6H128c14.132-0.015,25.585-11.468,25.6-25.6v-19.159l52.408-14.974h99.983l52.408,14.974    V486.4c0.015,14.132,11.468,25.585,25.6,25.6h34.133c14.132-0.015,25.585-11.468,25.6-25.6v-76.8    c9.421-0.011,17.056-7.646,17.067-17.067V358.4C460.78,352.331,457.528,346.732,452.267,343.707z M76.8,69.675    c0.033-29.04,23.565-52.573,52.604-52.608h253.192c29.04,0.035,52.572,23.568,52.604,52.608v271.659h-17.067V69.008    c-0.021-19.252-15.623-34.854-34.875-34.875H128.742c-19.252,0.021-34.854,15.623-34.875,34.875v272.325H76.8V69.675z     M366.933,230.4h-42.667v-93.867c-0.011-9.421-7.645-17.056-17.067-17.067H204.8c-9.421,0.011-17.056,7.645-17.067,17.067V230.4    h-42.667c-9.421,0.011-17.056,7.645-17.067,17.067v93.867h-17.067v-25.6V69.008c0.012-9.83,7.978-17.797,17.808-17.808h254.517    c9.83,0.012,17.797,7.978,17.808,17.808v272.325H384v-93.867C383.989,238.045,376.355,230.411,366.933,230.4z M174.714,305.926    c2.516,1.555,5.657,1.696,8.303,0.374l13.25-6.625l13.25,6.625c2.645,1.322,5.787,1.181,8.303-0.374    c2.516-1.555,4.047-4.302,4.047-7.259v-51.2h25.6v93.867h-102.4v-93.867h25.6v51.2    C170.667,301.624,172.198,304.371,174.714,305.926z M187.733,284.858v-37.392h8.533h8.533v37.392l-4.717-2.358    c-2.403-1.2-5.23-1.2-7.633,0L187.733,284.858z M204.8,230.4v-93.867h25.6v51.2c0.002,2.957,1.532,5.702,4.046,7.258    c2.517,1.554,5.658,1.696,8.304,0.375l13.25-6.625l13.25,6.625c2.645,1.323,5.787,1.181,8.303-0.374s4.047-4.302,4.047-7.259    v-51.2h25.6V230.4H204.8z M247.467,173.925v-37.392h17.067v37.392l-4.717-2.358c-2.403-1.2-5.23-1.2-7.633,0L247.467,173.925z     M324.267,247.467v37.392l-4.717-2.358c-2.403-1.2-5.23-1.2-7.633,0l-4.717,2.358v-37.392H324.267z M264.533,247.467h25.6v51.2    c0,2.958,1.531,5.704,4.047,7.259c2.516,1.555,5.657,1.696,8.303,0.374l13.25-6.625l13.25,6.625    c2.645,1.322,5.787,1.181,8.303-0.374c2.516-1.555,4.047-4.302,4.047-7.259v-51.2h25.6v93.867h-102.4V247.467z M136.533,426.667    H128c-4.713,0-8.533,3.82-8.533,8.533s3.82,8.533,8.533,8.533h8.533V460.8H128c-4.713,0-8.533,3.82-8.533,8.533    s3.82,8.533,8.533,8.533h8.533v8.533c-0.005,4.711-3.822,8.529-8.533,8.533H93.867c-4.711-0.005-8.529-3.822-8.533-8.533v-8.533    h8.533c4.713,0,8.533-3.82,8.533-8.533s-3.82-8.533-8.533-8.533h-8.533v-17.067h8.533c4.713,0,8.533-3.82,8.533-8.533    s-3.82-8.533-8.533-8.533h-8.533V409.6h51.2V426.667z M196.267,437.293L153.6,449.483V409.6h42.667V437.293z M298.667,435.2    h-85.333v-25.6h85.333V435.2z M358.4,449.483l-42.667-12.191V409.6H358.4V449.483z M426.667,426.667h-8.533    c-4.713,0-8.533,3.82-8.533,8.533s3.821,8.533,8.533,8.533h8.533V460.8h-8.533c-4.713,0-8.533,3.82-8.533,8.533    s3.821,8.533,8.533,8.533h8.533v8.533c-0.005,4.711-3.823,8.529-8.533,8.533H384c-4.711-0.005-8.529-3.822-8.533-8.533v-8.533H384    c4.713,0,8.533-3.82,8.533-8.533s-3.82-8.533-8.533-8.533h-8.533v-17.067H384c4.713,0,8.533-3.82,8.533-8.533    s-3.82-8.533-8.533-8.533h-8.533V409.6h51.2V426.667z M435.2,392.533H68.267V358.4h375.467l0.012,34.133H435.2z" data-original="#000000" class="active-path" style="fill:#006538" data-old_color="#000000"/>
	</g>
</g></g> </svg>
