<?xml version="1.0"?>
<svg xmlns="http://www.w3.org/2000/svg" xmlns:xlink="http://www.w3.org/1999/xlink" xmlns:svgjs="http://svgjs.com/svgjs" version="1.1" width="512" height="512" x="0" y="0" viewBox="0 0 512 512" style="enable-background:new 0 0 512 512" xml:space="preserve" class=""><g transform="matrix(1,0,0,1,0,0)"><path xmlns="http://www.w3.org/2000/svg" d="m144 392h16v16h-16z" fill="#006538" data-original="#000000" style="" class=""/><path xmlns="http://www.w3.org/2000/svg" d="m144 312h16v16h-16z" fill="#006538" data-original="#000000" style="" class=""/><path xmlns="http://www.w3.org/2000/svg" d="m144 232h16v16h-16z" fill="#006538" data-original="#000000" style="" class=""/><path xmlns="http://www.w3.org/2000/svg" d="m144 152h16v16h-16z" fill="#006538" data-original="#000000" style="" class=""/><path xmlns="http://www.w3.org/2000/svg" d="m352 392h16v16h-16z" fill="#006538" data-original="#000000" style="" class=""/><path xmlns="http://www.w3.org/2000/svg" d="m352 312h16v16h-16z" fill="#006538" data-original="#000000" style="" class=""/><path xmlns="http://www.w3.org/2000/svg" d="m352 232h16v16h-16z" fill="#006538" data-original="#000000" style="" class=""/><path xmlns="http://www.w3.org/2000/svg" d="m352 152h16v16h-16z" fill="#006538" data-original="#000000" style="" class=""/><path xmlns="http://www.w3.org/2000/svg" d="m480 80h-448a8 8 0 0 0 -8 8v32a8 8 0 0 0 8 8h16v312a8 8 0 0 0 8 8h400a8 8 0 0 0 8-8v-312h16a8 8 0 0 0 8-8v-32a8 8 0 0 0 -8-8zm-416 208h48v64h-48zm0-16v-64h48v64zm0-80v-64h48v64zm0 176h48v64h-48zm112 64h-48v-304h48zm144-304v64h-128v-64zm-128 240h128v64h-128zm0-16v-64h128v64zm0-80v-64h128v64zm192 160h-48v-304h48zm16-304h48v64h-48zm0 80h48v64h-48zm0 80h48v64h-48zm48 144h-48v-64h48zm24-320h-432v-16h432z" fill="#006538" data-original="#000000" style="" class=""/><path xmlns="http://www.w3.org/2000/svg" d="m192 48h216v16h-216z" fill="#006538" data-original="#000000" style="" class=""/><path xmlns="http://www.w3.org/2000/svg" d="m424 48h16v16h-16z" fill="#006538" data-original="#000000" style="" class=""/></g></svg>
