<svg width="18" height="29" viewBox="0 0 25 29" fill="none" xmlns="http://www.w3.org/2000/svg">
<path d="M23.418 10.098H22.74V6.827C22.7394 6.80622 22.7374 6.7855 22.734 6.765C22.7349 6.63359 22.688 6.50634 22.602 6.407L17.16 0.19L17.156 0.186C17.1234 0.150794 17.0864 0.119879 17.046 0.0939999L17.01 0.0719995C16.9754 0.0527776 16.9389 0.0373544 16.901 0.0259995L16.871 0.0159998C16.8295 0.0056408 16.7868 0.000269809 16.744 0H3.367C2.756 0 2.26 0.497 2.26 1.107V10.097H1.582C0.708 10.097 0 10.805 0 11.679V19.907C0 20.78 0.709 21.489 1.582 21.489H2.26V27.121C2.26 27.731 2.756 28.228 3.367 28.228H21.633C22.243 28.228 22.74 27.731 22.74 27.121V21.489H23.418C24.291 21.489 25 20.781 25 19.907V11.679C25 10.806 24.292 10.098 23.418 10.098ZM3.367 1.107H16.19V6.771C16.19 7.077 16.438 7.324 16.744 7.324H21.634V10.097H3.367V1.107ZM11.649 16.275C10.305 15.795 9.418 15.051 9.418 13.876C9.418 12.497 10.582 11.454 12.477 11.454C13.401 11.454 14.06 11.634 14.54 11.861L14.132 13.324C13.6091 13.0693 13.0346 12.9383 12.453 12.941C11.661 12.941 11.277 13.312 11.277 13.72C11.277 14.236 11.72 14.463 12.776 14.859C14.204 15.387 14.863 16.13 14.863 17.27C14.863 18.626 13.832 19.777 11.613 19.777C10.689 19.777 9.778 19.525 9.322 19.273L9.694 17.774C10.3219 18.0946 11.015 18.267 11.72 18.278C12.56 18.278 13.004 17.929 13.004 17.402C13.004 16.898 12.621 16.611 11.649 16.275ZM2.123 15.723C2.123 12.976 4.09 11.453 6.536 11.453C7.484 11.453 8.203 11.644 8.527 11.801L8.143 13.252C7.65725 13.048 7.1348 12.9459 6.608 12.952C5.169 12.952 4.042 13.827 4.042 15.626C4.042 17.233 5.001 18.253 6.62 18.253C7.184 18.253 7.784 18.146 8.155 17.989L8.42 19.428C8.096 19.583 7.328 19.776 6.357 19.776C3.562 19.777 2.123 18.026 2.123 15.723ZM21.633 26.823H3.367V21.49H21.633V26.823ZM20.155 19.657H18.02L15.43 11.573H17.433L18.416 14.992C18.691 15.963 18.943 16.875 19.135 17.882H19.171C19.3755 16.9211 19.6194 15.9689 19.902 15.028L20.934 11.574H22.876L20.155 19.657Z" fill="#1C69AD"/>
</svg>
