<svg width="24" height="24" viewBox="0 0 24 24" fill="none" xmlns="http://www.w3.org/2000/svg">
<rect width="24" height="24" rx="5" fill="#E4E6E9"/>
<path d="M13.8664 15.9082H12.6316V11.1569C12.6316 11.0706 12.5716 11 12.4983 11H11.4984C11.4251 11 11.3651 11.0706 11.3651 11.1569V15.9082H10.1336C10.0219 15.9082 9.96027 16.0592 10.0286 16.1612L11.895 18.9398C11.9075 18.9586 11.9234 18.9737 11.9416 18.9842C11.9598 18.9946 11.9798 19 12 19C12.0202 19 12.0402 18.9946 12.0584 18.9842C12.0766 18.9737 12.0925 18.9586 12.105 18.9398L13.9714 16.1612C14.0397 16.0592 13.9781 15.9082 13.8664 15.9082Z" fill="#1C69AD"/>
<path d="M18.0147 9.134C17.0946 6.718 14.7502 5 12.004 5C9.25781 5 6.91339 6.716 5.9933 9.132C4.27165 9.582 3 11.144 3 13C3 15.21 4.79799 17 7.01585 17H7.82143C7.90982 17 7.98214 16.928 7.98214 16.84V15.64C7.98214 15.552 7.90982 15.48 7.82143 15.48H7.01585C6.33884 15.48 5.70201 15.212 5.2279 14.726C4.7558 14.242 4.50469 13.59 4.52679 12.914C4.54487 12.386 4.72567 11.89 5.05312 11.472C5.38862 11.046 5.85871 10.736 6.38103 10.598L7.14241 10.4L7.42165 9.668C7.59442 9.212 7.83549 8.786 8.13884 8.4C8.43831 8.01742 8.79306 7.6811 9.19152 7.402C10.0172 6.824 10.9895 6.518 12.004 6.518C13.0185 6.518 13.9908 6.824 14.8165 7.402C15.2163 7.682 15.5699 8.018 15.8692 8.4C16.1725 8.786 16.4136 9.214 16.5864 9.668L16.8636 10.398L17.623 10.598C18.7118 10.89 19.4732 11.876 19.4732 13C19.4732 13.662 19.2141 14.286 18.744 14.754C18.5134 14.9849 18.2392 15.1679 17.9371 15.2925C17.635 15.4171 17.3111 15.4809 16.9842 15.48H16.1786C16.0902 15.48 16.0179 15.552 16.0179 15.64V16.84C16.0179 16.928 16.0902 17 16.1786 17H16.9842C19.202 17 21 15.21 21 13C21 11.146 19.7324 9.586 18.0147 9.134Z" fill="#1C69AD"/>
</svg>