<svg width="18" height="27" viewBox="0 0 24 27" fill="none" xmlns="http://www.w3.org/2000/svg">
<path d="M19.3797 1.836L17.7463 0H4.88294C3.95489 0 3.5962 0.6966 3.5962 1.24065V6.14115H5.4003V2.23155C5.4003 2.02365 5.57364 1.84815 5.77365 1.84815H14.9782C15.1808 1.84815 15.2822 1.8846 15.2822 2.05335V8.56035H21.8332C22.0906 8.56035 22.1906 8.69535 22.1906 8.89245V24.7819C22.1906 25.114 22.0572 25.164 21.8572 25.164H5.77365C5.67447 25.1616 5.58011 25.1202 5.51045 25.0487C5.4408 24.9772 5.40131 24.881 5.4003 24.7806V23.328H3.6082V25.6163C3.5842 26.4263 4.01089 27 4.88294 27H22.7479C23.6813 27 24 26.3155 24 25.6919V7.00245L23.5333 6.48945L19.3784 1.83735L19.3797 1.836ZM17.1156 2.052L17.6316 2.6379L21.0932 6.48945L21.2838 6.723H17.7463C17.4796 6.723 17.3103 6.67845 17.2396 6.588C17.169 6.50025 17.1276 6.3585 17.1156 6.16545V2.052ZM15.6622 14.4004H21.7652V16.2014H15.6609V14.4004H15.6622ZM15.6622 10.8014H21.7652V12.6009H15.6609V10.8L15.6622 10.8014ZM15.6622 18.0009H21.7652V19.8018H15.6609V18.0009H15.6622ZM0 7.5951V21.9956H13.9541V7.5951H0ZM6.97772 15.9705L6.12434 17.2908H6.97772V18.9H2.68815L5.80032 14.1615L3.04284 9.9009H5.34696L6.97905 12.3795L8.60981 9.9009H10.9126L8.14979 14.1615L11.266 18.9H8.87516L6.97772 15.9705Z" fill="#1A9A20"/>
</svg>
