<svg width="18" height="25" viewBox="0 0 25 25" fill="none" xmlns="http://www.w3.org/2000/svg">
<path d="M25.0002 14.286V12.5002H19.6431V21.4288H21.4288V17.8574H24.1074V16.0717H21.4288V14.286H25.0002Z" fill="#EA1A1A"/>
<path d="M15.1784 21.4288H11.6069V12.5002H15.1784C15.8886 12.501 16.5694 12.7834 17.0716 13.2856C17.5738 13.7877 17.8562 14.4686 17.8569 15.1788V18.7503C17.8562 19.4604 17.5738 20.1413 17.0716 20.6435C16.5694 21.1457 15.8886 21.4281 15.1784 21.4288ZM13.3927 19.6431H15.1784C15.4151 19.6429 15.6421 19.5487 15.8095 19.3813C15.9768 19.2139 16.071 18.987 16.0712 18.7503V15.1788C16.071 14.9421 15.9768 14.7151 15.8095 14.5477C15.6421 14.3803 15.4151 14.2862 15.1784 14.286H13.3927V19.6431Z" fill="#EA1A1A"/>
<path d="M8.03558 12.5002H3.57129V21.4288H5.35701V18.7503H8.03558C8.50897 18.7495 8.96276 18.5612 9.29749 18.2264C9.63222 17.8917 9.82059 17.4379 9.8213 16.9645V14.286C9.82083 13.8125 9.63254 13.3586 9.29775 13.0238C8.96297 12.689 8.50904 12.5007 8.03558 12.5002ZM5.35701 16.9645V14.286H8.03558L8.03647 16.9645H5.35701Z" fill="#EA1A1A"/>
<path d="M17.8572 10.7146V7.14317C17.8603 7.02583 17.838 6.9092 17.7918 6.8013C17.7455 6.69341 17.6765 6.59681 17.5893 6.51817L11.3393 0.268161C11.2607 0.180969 11.1641 0.111867 11.0562 0.0656225C10.9483 0.0193784 10.8317 -0.00290699 10.7143 0.000303608H1.78572C1.31255 0.00171676 0.859167 0.190308 0.524585 0.524889C0.190004 0.85947 0.00141315 1.31285 0 1.78602V23.2146C0 23.6882 0.188137 24.1424 0.523024 24.4773C0.857911 24.8122 1.31212 25.0003 1.78572 25.0003H16.0715V23.2146H1.78572V1.78602H8.92858V7.14317C8.93 7.61634 9.11859 8.06972 9.45317 8.4043C9.78775 8.73888 10.2411 8.92747 10.7143 8.92889H16.0715V10.7146H17.8572ZM10.7143 7.14317V2.14316L15.7143 7.14317H10.7143Z" fill="#EA1A1A"/>
</svg>
