<svg width="24" height="24" viewBox="0 0 24 24" fill="none" xmlns="http://www.w3.org/2000/svg">
<g clip-path="url(#clip0_3801_497)">
<path d="M13.8111 23.3456C13.0778 23.3402 12.3477 23.2481 11.6361 23.0714C9.17842 22.4784 6.64763 20.9742 4.51107 18.8358C2.37451 16.6974 0.868414 14.1661 0.275445 11.7108C-0.34893 9.12798 0.0963831 6.91829 1.52795 5.48673L1.9367 5.07798C2.30755 4.70787 2.81009 4.5 3.33404 4.5C3.85798 4.5 4.36053 4.70787 4.73138 5.07798L7.08029 7.42642C7.45063 7.79715 7.65866 8.29974 7.65866 8.82376C7.65866 9.34778 7.45063 9.85037 7.08029 10.2211L5.69279 11.6081C6.35795 12.7753 7.26263 13.9434 8.33185 15.0127C9.40107 16.0819 10.5701 16.987 11.7369 17.6522L13.1239 16.2647C13.3074 16.0812 13.5252 15.9356 13.765 15.8362C14.0047 15.7369 14.2617 15.6857 14.5212 15.6857C14.7808 15.6857 15.0377 15.7369 15.2775 15.8362C15.5173 15.9356 15.7351 16.0812 15.9186 16.2647L18.267 18.6131C18.6374 18.9837 18.8455 19.4863 18.8455 20.0102C18.8455 20.5342 18.6374 21.0368 18.267 21.4074L17.8578 21.8161C16.8486 22.8272 15.4517 23.3456 13.8111 23.3456ZM3.33404 5.90532C3.2592 5.90495 3.18503 5.91952 3.11589 5.94817C3.04675 5.97683 2.98402 6.01899 2.93138 6.0722L2.52216 6.48095C1.45013 7.55298 1.13701 9.29345 1.64045 11.3789C2.17341 13.5881 3.54545 15.8836 5.50342 17.8411C7.46138 19.7986 9.75638 21.1692 11.9661 21.7041C14.052 22.2075 15.7915 21.8944 16.8636 20.8224L17.2723 20.4136C17.3791 20.3067 17.4391 20.1618 17.4391 20.0107C17.4391 19.8596 17.3791 19.7147 17.2723 19.6078L14.9244 17.2594C14.8175 17.1526 14.6726 17.0926 14.5215 17.0926C14.3704 17.0926 14.2255 17.1526 14.1186 17.2594L12.3603 19.0177C12.2548 19.1232 12.1184 19.1925 11.971 19.2154C11.8235 19.2383 11.6725 19.2137 11.54 19.1452C10.0986 18.3999 8.64545 17.3147 7.33763 16.0069C6.02982 14.6991 4.94701 13.2469 4.19982 11.8055C4.1312 11.673 4.10653 11.522 4.12937 11.3746C4.1522 11.2271 4.22137 11.0907 4.32685 10.9852L6.0856 9.22688C6.1924 9.12 6.25239 8.97509 6.25239 8.82399C6.25239 8.6729 6.1924 8.52799 6.0856 8.4211L3.73716 6.0722C3.68436 6.01908 3.62153 5.97698 3.55233 5.94834C3.48313 5.91969 3.40893 5.90507 3.33404 5.90532Z" fill="#717171"/>
<g clip-path="url(#clip1_3801_497)">
<path d="M9.56248 14.2503C9.4887 14.2522 9.4155 14.2368 9.34874 14.2053C9.24602 14.1631 9.15809 14.0915 9.09603 13.9994C9.03397 13.9073 9.00055 13.7989 9 13.6878V3.43939C9.00803 3.07815 9.08716 2.72204 9.23287 2.39139C9.37857 2.06075 9.58799 1.76205 9.84917 1.51237C10.1103 1.26268 10.4182 1.06691 10.755 0.936218C11.0919 0.80553 11.4512 0.742494 11.8124 0.750711H20.8122C21.1734 0.742494 21.5327 0.80553 21.8696 0.936218C22.2064 1.06691 22.5142 1.26268 22.7754 1.51237C23.0366 1.76205 23.246 2.06075 23.3917 2.39139C23.5374 2.72204 23.6166 3.07815 23.6246 3.43939V8.74923C23.6166 9.11047 23.5374 9.46658 23.3917 9.79723C23.246 10.1279 23.0366 10.4266 22.7754 10.6763C22.5142 10.9259 22.2064 11.1217 21.8696 11.2524C21.5327 11.3831 21.1734 11.4461 20.8122 11.4379H12.6055L9.96185 14.0872C9.90929 14.1393 9.84696 14.1806 9.77843 14.2086C9.70989 14.2366 9.63651 14.2508 9.56248 14.2503ZM11.8124 1.87568C11.3816 1.86046 10.9623 2.01639 10.6461 2.30939C10.3299 2.6024 10.1425 3.00866 10.125 3.43939V12.3323L11.9755 10.4761C12.0281 10.4239 12.0904 10.3827 12.159 10.3547C12.2275 10.3267 12.3009 10.3125 12.3749 10.3129H20.8122C21.243 10.3282 21.6623 10.1722 21.9785 9.87923C22.2947 9.58622 22.482 9.17996 22.4996 8.74923V3.43939C22.482 3.00866 22.2947 2.6024 21.9785 2.30939C21.6623 2.01639 21.243 1.86046 20.8122 1.87568H11.8124Z" fill="#717171"/>
<path d="M16.3125 6.93806C16.7785 6.93806 17.1562 6.56031 17.1562 6.09434C17.1562 5.62836 16.7785 5.25061 16.3125 5.25061C15.8465 5.25061 15.4688 5.62836 15.4688 6.09434C15.4688 6.56031 15.8465 6.93806 16.3125 6.93806Z" fill="#717171"/>
<path d="M19.4062 6.93806C19.8722 6.93806 20.25 6.56031 20.25 6.09434C20.25 5.62836 19.8722 5.25061 19.4062 5.25061C18.9402 5.25061 18.5625 5.62836 18.5625 6.09434C18.5625 6.56031 18.9402 6.93806 19.4062 6.93806Z" fill="#717171"/>
<path d="M13.2187 6.93806C13.6847 6.93806 14.0625 6.56031 14.0625 6.09434C14.0625 5.62836 13.6847 5.25061 13.2187 5.25061C12.7527 5.25061 12.375 5.62836 12.375 6.09434C12.375 6.56031 12.7527 6.93806 13.2187 6.93806Z" fill="#717171"/>
</g>
</g>
<defs>
<clipPath id="clip0_3801_497">
<rect width="24" height="24" fill="white"/>
</clipPath>
<clipPath id="clip1_3801_497">
<rect width="16.5" height="16.5" fill="white" transform="translate(7.5)"/>
</clipPath>
</defs>
</svg>
