<svg width="25" height="24" viewBox="0 0 25 24" fill="none" xmlns="http://www.w3.org/2000/svg">
<path d="M18.5 14V11H15.5V9H18.5V6H20.5V9H23.5V11H20.5V14H18.5ZM9.5 12C8.4 12 7.45833 11.6083 6.675 10.825C5.89167 10.0417 5.5 9.1 5.5 8C5.5 6.9 5.89167 5.95833 6.675 5.175C7.45833 4.39167 8.4 4 9.5 4C10.6 4 11.5417 4.39167 12.325 5.175C13.1083 5.95833 13.5 6.9 13.5 8C13.5 9.1 13.1083 10.0417 12.325 10.825C11.5417 11.6083 10.6 12 9.5 12ZM1.5 20V17.2C1.5 16.6333 1.646 16.1127 1.938 15.638C2.23 15.1633 2.61733 14.8007 3.1 14.55C4.13333 14.0333 5.18333 13.646 6.25 13.388C7.31667 13.13 8.4 13.0007 9.5 13C10.6 12.9993 11.6833 13.1287 12.75 13.388C13.8167 13.6473 14.8667 14.0347 15.9 14.55C16.3833 14.8 16.771 15.1627 17.063 15.638C17.355 16.1133 17.5007 16.634 17.5 17.2V20H1.5Z" fill="white"/>
</svg>