<svg width="100" height="100" viewBox="0 0 100 100" fill="none" xmlns="http://www.w3.org/2000/svg">
<path d="M86.0002 19H43.0083C41.0284 19 38.1889 20.062 36.6995 21.3625L6.11822 48.1285C5.76855 48.4164 5.48694 48.7782 5.2936 49.1878C5.10027 49.5974 5 50.0448 5 50.4978C5 50.9507 5.10027 51.3981 5.2936 51.8077C5.48694 52.2173 5.76855 52.5791 6.11822 52.867L36.6995 79.6285C38.1889 80.929 41.0284 82 43.0083 82H86.0002C90.9501 82 95 77.95 95 73V28C95 23.05 90.9501 19 86.0002 19ZM73.36 68.5L61.8538 56.9935L50.3521 68.5L43.8588 62.0065L55.3605 50.5L43.8588 38.9935L50.3521 32.5L61.8583 43.9975L73.3555 32.5L79.8534 38.9935L68.3517 50.5L79.8579 61.9975L73.36 68.5V68.5Z" fill="#9E9B9B"/>
</svg>
