<svg width="100" height="100" viewBox="0 0 100 100" fill="none" xmlns="http://www.w3.org/2000/svg">
<path d="M95.5831 56.8625L94.4101 61.9329C93.7693 64.7115 92.1579 67.1578 89.8767 68.8152C87.5954 70.4726 84.8001 71.2278 82.0123 70.9401L72.8295 69.9918C70.4318 69.7439 68.1705 68.7377 66.3628 67.1142C64.5551 65.4907 63.2917 63.3314 62.7499 60.9394L60.8221 52.4313C60.7659 52.1827 60.6241 51.9627 60.4225 51.8113C59.072 50.7999 55.6984 50.1435 50.4907 50.1411C46.7061 50.1415 43.8527 50.4822 42.0089 51.1106C40.7198 51.5469 40.2736 51.941 40.2121 52.1862L38.2298 60.9416C37.6882 63.3325 36.4258 65.4909 34.6194 67.1141C32.813 68.7373 30.5533 69.7441 28.1569 69.9933L19.0147 70.9396C16.2346 71.2274 13.4464 70.4777 11.1678 68.8299C8.88912 67.1821 7.27488 64.748 6.6247 61.9796L5.43098 56.9043C4.7993 54.2117 4.86294 51.3984 5.61571 48.7383C6.36847 46.0783 7.7847 43.6621 9.72646 41.7252C18.2996 33.1736 31.926 29.0006 50.4899 29C69.0783 28.9989 82.716 33.1843 91.2914 41.7617C93.2197 43.6913 94.6276 46.0944 95.3793 48.7394C96.131 51.3843 96.2012 54.1819 95.5831 56.8625ZM89.4522 55.3941C89.8233 53.7864 89.7818 52.1085 89.3316 50.5219C88.8815 48.9353 88.0378 47.4935 86.882 46.3354C79.6701 39.1226 67.5798 35.413 50.49 35.4119C33.4247 35.4103 21.3452 39.111 14.1266 46.3071C12.9629 47.4695 12.1143 48.9188 11.6635 50.5142C11.2127 52.1096 11.175 53.7967 11.554 55.4114L12.7456 60.4904C13.0411 61.7491 13.775 62.8559 14.8111 63.605C15.8472 64.3541 17.115 64.6947 18.379 64.5636L27.5154 63.6188C28.6056 63.5061 29.6337 63.0483 30.4554 62.31C31.2772 61.5716 31.8513 60.5896 32.0972 59.5018L34.0828 50.7236C35.273 45.6486 40.9211 43.7283 50.4906 43.7293C56.9355 43.7288 61.4299 44.605 64.1542 46.6464C65.5674 47.7096 66.558 49.2448 66.9553 50.9889L68.8831 59.4969C69.1291 60.5845 69.7033 61.5663 70.525 62.3045C71.3467 63.0427 72.3747 63.5003 73.4648 63.613L82.6476 64.5613C83.914 64.6917 85.1837 64.3486 86.2201 63.5959C87.2565 62.8432 87.9889 61.7323 88.2807 60.4703L89.4522 55.3941Z" fill="white"/>
</svg>
