<svg width="100" height="100" viewBox="0 0 100 100" fill="currentColor" xmlns="http://www.w3.org/2000/svg">
<path d="M27.0219 4.21295L32.437 2.5536C35.4035 1.64226 38.5941 1.86164 41.4135 3.17082C44.2328 4.48 46.4883 6.78954 47.7591 9.66847L51.9446 19.1518C53.0372 21.6281 53.3415 24.3907 52.8147 27.0521C52.2879 29.7134 50.9565 32.14 49.0074 33.9914L42.0748 40.5767C41.8722 40.7691 41.7438 41.0291 41.7129 41.3095C41.5087 43.1863 42.7569 46.8407 45.6339 51.9227C47.7266 55.6149 49.6245 58.2103 51.2347 59.6616C52.3576 60.678 52.9748 60.8955 53.2393 60.8198L62.5661 57.9124C65.1132 57.1187 67.8403 57.1569 70.365 58.0216C72.8897 58.8864 75.0855 60.5343 76.6446 62.7345L82.5888 71.1305C84.3964 73.6837 85.2332 76.8185 84.9439 79.9527C84.6546 83.087 83.2589 86.0079 81.0158 88.173L76.9045 92.1441C74.7225 94.2493 72.0425 95.7429 69.1256 96.4794C66.2088 97.2159 63.1544 97.1702 60.2599 96.3469C47.4807 92.7114 36.024 81.7248 25.7597 63.6138C15.4816 45.4791 11.8761 29.8595 15.1985 16.7502C15.9464 13.8019 17.4272 11.0995 19.4981 8.90355C21.569 6.70762 24.1601 5.09218 27.0219 4.21295V4.21295ZM29.0311 11.0063C27.3146 11.5332 25.7601 12.5016 24.5175 13.8181C23.2748 15.1346 22.3858 16.755 21.9362 18.523C19.1428 29.5475 22.3399 43.3943 31.7874 60.0682C41.221 76.7184 51.3785 86.457 62.1346 89.5204C63.8707 90.013 65.7024 90.0394 67.4514 89.597C69.2005 89.1546 70.8074 88.2585 72.1158 86.9959L76.2317 83.0248C77.2516 82.0405 77.8863 80.7125 78.0177 79.2874C78.1491 77.8624 77.7684 76.4371 76.9463 75.2765L71.0067 66.8852C70.298 65.884 69.2993 65.134 68.1508 64.7406C67.0023 64.3472 65.7617 64.33 64.6032 64.6916L55.2531 67.6085C49.824 69.2537 44.8961 64.8051 39.6062 55.4683C36.0425 49.1808 34.3813 44.3115 34.7943 40.5247C35.0124 38.5581 35.908 36.7428 37.3279 35.3907L44.2604 28.8053C45.1468 27.9639 45.7523 26.8608 45.992 25.6509C46.2317 24.441 46.0935 23.185 45.5968 22.0592L41.4113 12.5759C40.8337 11.2683 39.8091 10.2193 38.5285 9.62435C37.2479 9.02942 35.7987 8.92917 34.4509 9.34227L29.0311 11.0063V11.0063Z" fill="white"/>
</svg>
