<svg xmlns="http://www.w3.org/2000/svg" xmlns:xlink="http://www.w3.org/1999/xlink" width="99" height="88" viewBox="0 0 99 88">
  <defs>
    <filter id="Polígono_2" x="0" y="0" width="99" height="88" filterUnits="userSpaceOnUse">
      <feOffset dy="3" input="SourceAlpha"/>
      <feGaussianBlur stdDeviation="3" result="blur"/>
      <feFlood flood-opacity="0.161"/>
      <feComposite operator="in" in2="blur"/>
      <feComposite in="SourceGraphic"/>
    </filter>
  </defs>
  <g id="Grupo_2" data-name="Grupo 2" transform="translate(-79 -174)">
    <g id="Grupo_1" data-name="Grupo 1">
      <g transform="matrix(1, 0, 0, 1, 79, 174)" filter="url(#Polígono_2)">
        <path id="Polígono_2-2" data-name="Polígono 2" d="M37.038,5.984a4,4,0,0,1,6.925,0L77.527,64a4,4,0,0,1-3.462,6H6.936a4,4,0,0,1-3.462-6Z" transform="translate(9 6)" fill="#fcc601"/>
      </g>
      <g id="Polígono_1" data-name="Polígono 1" transform="translate(92 184)" fill="#fcc601">
        <path d="M 67.83546447753906 63.50000381469727 L 5.164535999298096 63.50000381469727 C 4.263496398925781 63.50000381469727 3.455366134643555 63.03485107421875 3.002786159515381 62.25572204589844 C 2.550196170806885 61.47660446166992 2.546496152877808 60.54417419433594 2.992876291275024 59.76147079467773 L 34.32834625244141 4.817092895507813 C 34.77883529663086 4.02719259262085 35.59066772460938 3.555612802505493 36.49999618530273 3.555612802505493 C 37.40932464599609 3.555612802505493 38.22115707397461 4.02719259262085 38.67164611816406 4.817092895507813 L 70.00711822509766 59.76147079467773 C 70.45349884033203 60.54417419433594 70.44979858398438 61.47660446166992 69.99720764160156 62.25573348999023 C 69.54462432861328 63.03485107421875 68.73649597167969 63.50000381469727 67.83546447753906 63.50000381469727 Z" stroke="none"/>
        <path d="M 36.49999618530273 4.055614471435547 C 35.77253723144531 4.055614471435547 35.12306594848633 4.432884216308594 34.76267623901367 5.064804077148438 L 3.427207946777344 60.00918197631836 C 3.070106506347656 60.63533401489258 3.073066711425781 61.38128280639648 3.435134887695313 62.00458145141602 C 3.797195434570313 62.62788391113281 4.443702697753906 63.00000381469727 5.164527893066406 63.00000381469727 L 67.83546447753906 63.00000381469727 C 68.55629730224609 63.00000381469727 69.20279693603516 62.62788391113281 69.56485748291016 62.00458145141602 C 69.92692565917969 61.38128280639648 69.92988586425781 60.63534164428711 69.57278442382813 60.00918197631836 L 38.2373161315918 5.064804077148438 C 37.87692642211914 4.432884216308594 37.22745513916016 4.055614471435547 36.49999618530273 4.055614471435547 M 36.49999618530273 3.055614471435547 C 37.51521301269531 3.055614471435547 38.53042602539063 3.560207366943359 39.10597610473633 4.569393157958984 L 70.44144439697266 59.51377105712891 C 71.58204650878906 61.51373291015625 70.1378173828125 64 67.83546447753906 64 L 5.164527893066406 64 C 2.8621826171875 64 1.417945861816406 61.51373291015625 2.558547973632813 59.51377105712891 L 33.89401626586914 4.569393157958984 C 34.46956634521484 3.560207366943359 35.48477935791016 3.055614471435547 36.49999618530273 3.055614471435547 Z" stroke="none"/>
      </g>
      <text id="_" data-name="!" transform="translate(120 239)" font-size="50" font-family="SitkaText, Sitka Text"><tspan x="0" y="0">!</tspan></text>
    </g>
  </g>
</svg>
