<?xml version="1.0" encoding="UTF-8"?>
<!DOCTYPE svg PUBLIC "-//W3C//DTD SVG 1.1//EN" "http://www.w3.org/Graphics/SVG/1.1/DTD/svg11.dtd">
<!-- Creator: CorelDRAW X7 -->
<svg xmlns="http://www.w3.org/2000/svg" xml:space="preserve" width="250mm" height="100mm" version="1.1" shape-rendering="geometricPrecision" text-rendering="geometricPrecision" image-rendering="optimizeQuality" fill-rule="evenodd" clip-rule="evenodd"
viewBox="0 0 25000 10000"
 xmlns:xlink="http://www.w3.org/1999/xlink">
 <g id="Camada_x0020_1">
  <metadata id="CorelCorpID_0Corel-Layer"/>
  <g id="_1340377850448">
   <g>
    <path fill="#03A9F4" d="M2132 6768c332,70 631,66 974,71 -39,-115 -94,-196 -138,-302 -74,-176 -22,-141 -170,-242 -628,-427 271,-1166 627,-1432 1570,-1176 4648,-2222 6716,-2399 1862,-159 -74,-115 -689,-50 -2184,234 -6049,1449 -7604,3030 -79,81 -129,115 -199,213 -391,545 -158,975 483,1111z"/>
    <path fill="#03A9F4" d="M8979 7728c-168,148 -519,328 -769,430 -2052,844 -4573,-522 -4760,-3063 -157,85 -289,210 -415,329 -193,182 -175,134 -93,470 449,1836 2236,3052 4156,2773 395,-58 736,-173 1067,-333 158,-76 314,-170 442,-256 93,-63 400,-231 372,-350z"/>
    <path fill="#03A9F4" d="M7624 1446c0,0 -206,-69 -416,-101 -165,-26 -327,-43 -368,-42 -309,-20 -666,-9 -964,45 -818,149 -1188,416 -1723,813 -614,454 -1200,1513 -1273,2276 51,-17 568,-297 614,-332 95,-72 465,-1930 2392,-2528 846,-262 1118,-163 1738,-131z"/>
    <path fill="#03A9F4" d="M7386 6071c-1230,261 -2032,412 -3301,454l133 253c367,25 3140,-557 3168,-707z"/>
   </g>
   <g>
    <polygon fill="#03A9F4" fill-rule="nonzero" points="12593,7504 12211,7504 12348,6615 12727,6615 12710,6730 12526,6730 12489,6970 12655,6970 12638,7078 12472,7078 12424,7390 12611,7390 "/>
    <path fill="#03A9F4" fill-rule="nonzero" d="M13798 6929l-178 0 27 -175c2,-15 -5,-22 -24,-22 -19,0 -29,7 -32,22l-95 614c-2,15 6,22 25,22 18,0 29,-7 31,-22l34 -219 178 0 -35 226c-7,42 -33,76 -78,101 -46,26 -95,38 -147,38 -151,0 -218,-53 -201,-159l88 -572c18,-115 103,-173 254,-173 135,0 194,53 178,158l-25 161z"/>
    <polygon fill="#03A9F4" fill-rule="nonzero" points="14910,7515 14710,7515 14643,7041 14575,7515 14413,7515 14541,6626 14763,6626 14818,7031 14876,6626 15039,6626 "/>
    <path fill="#03A9F4" fill-rule="nonzero" d="M15599 7368l85 -572c18,-115 108,-173 270,-173 160,0 232,58 215,172l-86 572c-8,51 -36,91 -85,119 -49,28 -109,42 -181,42 -161,0 -234,-54 -218,-160zm275 8l91 -604c2,-18 -8,-27 -30,-27 -24,0 -37,9 -39,27l-91 604c-3,18 8,27 31,27 23,0 35,-9 38,-27z"/>
    <polygon fill="#03A9F4" fill-rule="nonzero" points="17095,7504 16729,7504 16851,6615 17046,6615 16940,7390 17110,7390 "/>
    <path fill="#03A9F4" fill-rule="nonzero" d="M17783 7349l86 -571c17,-116 107,-173 269,-173 161,0 232,57 215,171l-86 572c-7,52 -36,91 -85,119 -48,28 -109,42 -180,42 -162,0 -235,-53 -219,-160zm275 9l91 -605c3,-17 -7,-26 -30,-26 -23,0 -37,9 -39,26l-91 605c-2,18 8,27 31,27 23,0 36,-9 38,-27z"/>
    <polygon fill="#03A9F4" fill-rule="nonzero" points="11663,6739 11554,6739 11446,7512 11250,7512 11358,6739 11249,6739 11265,6623 11679,6623 "/>
    <path fill="#03A9F4" fill-rule="nonzero" d="M19373 7509l-93 0 -18 -48c-49,37 -97,56 -145,56 -46,0 -85,-12 -116,-36 -31,-24 -42,-63 -34,-116l94 -579c18,-116 101,-173 248,-173 139,0 200,52 183,157l-26 165 -178 0 29 -179c2,-14 -6,-21 -25,-21 -18,0 -29,7 -31,21l-99 615c-2,14 6,22 24,22 19,0 29,-8 32,-22l27 -166 -39 0 22 -136 216 0 -71 440z"/>
    <polygon fill="#03A9F4" fill-rule="nonzero" points="20270,7507 20074,7507 20214,6618 20409,6618 "/>
    <path fill="#03A9F4" fill-rule="nonzero" d="M21408 7520l-194 0 5 -239 -87 0 -70 239 -195 0 286 -889 250 0 5 889zm-185 -362l13 -265 -68 265 55 0z"/>
   </g>
   <g>
    <path fill="#03A9F4" d="M20376 4271l0 0 20 424 63 1592 1049 2 1358 -2818 -737 4c-70,219 -580,1271 -745,1635l-217 433c-15,30 -63,24 -117,26l-140 -2095 -843 1c-104,338 -308,764 -450,1106 -78,189 -149,352 -224,537l-199 433c-12,26 -57,15 -107,12l-230 -2090 -707 -2 363 2790c78,43 146,27 252,26l791 1c85,-146 797,-1858 820,-2017z"/>
    <path fill="#03A9F4" d="M15953 4184c244,-27 525,-16 780,-11 294,7 499,-17 492,318 -4,198 -66,514 -109,699 -65,271 -125,351 -413,384 -229,27 -559,17 -795,12 -543,-12 -589,-110 -363,-1012 73,-287 100,-355 408,-390zm1996 149c69,-636 19,-836 -611,-884 -458,-35 -1068,-35 -1526,0 -541,42 -731,205 -865,686 -109,386 -189,853 -240,1276 -80,667 4,868 662,900 480,23 978,22 1459,-2 554,-28 747,-213 880,-685 114,-402 194,-860 241,-1291z"/>
    <path fill="#03A9F4" d="M8497 5343c-172,983 60,983 1251,983 931,1 1302,50 1477,-869 73,-379 113,-737 -226,-850 -674,-224 -1881,131 -1597,-397 137,-256 1174,-109 1271,-67l-4 223 668 -1c125,-829 -22,-932 -858,-933 -1160,-2 -1626,-129 -1796,969 -135,874 348,735 1034,787l668 33c313,24 145,360 59,410 -94,55 -319,38 -442,40 -888,15 -849,24 -837,-327l-668 -1z"/>
    <polygon fill="#03A9F4" points="14776,3470 14048,3484 13865,4478 12350,4477 12525,3470 11794,3487 11319,6286 12031,6286 12204,5270 13735,5269 13570,6287 14285,6285 "/>
   </g>
   <polygon fill="none" points="1284,1137 23716,1137 23716,8863 1284,8863 "/>
   <path fill="none" d="M20376 4271l0 0 20 424 63 1592 1049 2 1358 -2818 -737 4c-70,219 -580,1271 -745,1635l-217 433c-15,30 -63,24 -117,26l-140 -2095 -843 1c-104,338 -308,764 -450,1106 -78,189 -149,352 -224,537l-199 433c-12,26 -57,15 -107,12l-230 -2090 -707 -2 363 2790c78,43 146,27 252,26l791 1c85,-146 797,-1858 820,-2017z"/>
   <path fill="none" d="M15953 4184c244,-27 525,-16 780,-11 294,7 499,-17 492,318 -4,198 -66,514 -109,699 -65,271 -125,351 -413,384 -229,27 -559,17 -795,12 -543,-12 -589,-110 -363,-1012 73,-287 100,-355 408,-390zm1996 149c69,-636 19,-836 -611,-884 -458,-35 -1068,-35 -1526,0 -541,42 -731,205 -865,686 -109,386 -189,853 -240,1276 -80,667 4,868 662,900 480,23 978,22 1459,-2 554,-28 747,-213 880,-685 114,-402 194,-860 241,-1291z"/>
   <path fill="none" d="M8497 5343c-172,983 60,983 1251,983 931,1 1302,50 1477,-869 73,-379 113,-737 -226,-850 -674,-224 -1881,131 -1597,-397 137,-256 1174,-109 1271,-67l-4 223 668 -1c125,-829 -22,-932 -858,-933 -1160,-2 -1626,-129 -1796,969 -135,874 348,735 1034,787l668 33c313,24 145,360 59,410 -94,55 -319,38 -442,40 -888,15 -849,24 -837,-327l-668 -1z"/>
   <polygon fill="none" points="14776,3470 14048,3484 13865,4478 12350,4477 12525,3470 11794,3487 11319,6286 12031,6286 12204,5270 13735,5269 13570,6287 14285,6285 "/>
  </g>
 </g>
</svg>
