<?xml version="1.0" encoding="UTF-8"?>
<!DOCTYPE svg PUBLIC "-//W3C//DTD SVG 1.1//EN" "http://www.w3.org/Graphics/SVG/1.1/DTD/svg11.dtd">
<!-- Creator: CorelDRAW 2020 (64 Bit) -->
<svg xmlns="http://www.w3.org/2000/svg" xml:space="preserve" width="250mm" height="100mm" version="1.1" style="shape-rendering:geometricPrecision; text-rendering:geometricPrecision; image-rendering:optimizeQuality; fill-rule:evenodd; clip-rule:evenodd"
viewBox="0 0 29700 21000"
 xmlns:xlink="http://www.w3.org/1999/xlink"
 xmlns:xodm="http://www.corel.com/coreldraw/odm/2003">
 <defs>
  <style type="text/css">
   <![CDATA[
    .fil0 {fill:none}
    .fil1 {fill:white}
    .fil2 {fill:white;fill-rule:nonzero}
   ]]>
  </style>
 </defs>
 <g id="Camada_x0020_1">
  <metadata id="CorelCorpID_0Corel-Layer"/>
  <polygon class="fil0" points="3633.47,6644.13 26065.47,6644.13 26065.47,14370.13 3633.47,14370.13 "/>
  <path class="fil1" d="M4481.47 12275.13c332,70 631,66 974,71 -39,-115 -94,-196 -138,-302 -74,-176 -22,-141 -170,-242 -628,-427 271,-1166 627,-1432 1570,-1176 4648,-2222 6716,-2399 1862,-159 -74,-115 -689,-50 -2184,234 -6049,1449 -7604,3030 -79,81 -129,115 -199,213 -391,545 -158,975 483,1111z"/>
  <path class="fil1" d="M11328.47 13235.13c-168,148 -519,328 -769,430 -2052,844 -4573,-522 -4760,-3063 -157,85 -289,210 -415,329 -193,182 -175,134 -93,470 449,1836 2236,3052 4156,2773 395,-58 736,-173 1067,-333 158,-76 314,-170 442,-256 93,-63 400,-231 372,-350z"/>
  <path class="fil1" d="M9973.47 6953.13c0,0 -206,-69 -416,-101 -165,-26 -327,-43 -368,-42 -309,-20 -666,-9 -964,45 -818,149 -1188,416 -1723,813 -614,454 -1200,1513 -1273,2276 51,-17 568,-297 614,-332 95,-72 465,-1930 2392,-2528 846,-262 1118,-163 1738,-131z"/>
  <path class="fil1" d="M9735.47 11578.13c-1230,261 -2032,412 -3301,454l133 253c367,25 3140,-557 3168,-707z"/>
  <polygon class="fil2" points="14942.47,13011.13 14560.47,13011.13 14697.47,12122.13 15076.47,12122.13 15059.47,12237.13 14875.47,12237.13 14838.47,12477.13 15004.47,12477.13 14987.47,12585.13 14821.47,12585.13 14773.47,12897.13 14960.47,12897.13 "/>
  <path class="fil2" d="M16147.47 12436.13l-178 0 27 -175c2,-15 -5,-22 -24,-22 -19,0 -29,7 -32,22l-95 614c-2,15 6,22 25,22 18,0 29,-7 31,-22l34 -219 178 0 -35 226c-7,42 -33,76 -78,101 -46,26 -95,38 -147,38 -151,0 -218,-53 -201,-159l88 -572c18,-115 103,-173 254,-173 135,0 194,53 178,158l-25 161z"/>
  <polygon class="fil2" points="17259.47,13022.13 17059.47,13022.13 16992.47,12548.13 16924.47,13022.13 16762.47,13022.13 16890.47,12133.13 17112.47,12133.13 17167.47,12538.13 17225.47,12133.13 17388.47,12133.13 "/>
  <path class="fil2" d="M17948.47 12875.13l85 -572c18,-115 108,-173 270,-173 160,0 232,58 215,172l-86 572c-8,51 -36,91 -85,119 -49,28 -109,42 -181,42 -161,0 -234,-54 -218,-160zm275 8l91 -604c2,-18 -8,-27 -30,-27 -24,0 -37,9 -39,27l-91 604c-3,18 8,27 31,27 23,0 35,-9 38,-27z"/>
  <polygon class="fil2" points="19444.47,13011.13 19078.47,13011.13 19200.47,12122.13 19395.47,12122.13 19289.47,12897.13 19459.47,12897.13 "/>
  <path class="fil2" d="M20132.47 12856.13l86 -571c17,-116 107,-173 269,-173 161,0 232,57 215,171l-86 572c-7,52 -36,91 -85,119 -48,28 -109,42 -180,42 -162,0 -235,-53 -219,-160zm275 9l91 -605c3,-17 -7,-26 -30,-26 -23,0 -37,9 -39,26l-91 605c-2,18 8,27 31,27 23,0 36,-9 38,-27z"/>
  <polygon class="fil2" points="14012.47,12246.13 13903.47,12246.13 13795.47,13019.13 13599.47,13019.13 13707.47,12246.13 13598.47,12246.13 13614.47,12130.13 14028.47,12130.13 "/>
  <path class="fil2" d="M21722.47 13016.13l-93 0 -18 -48c-49,37 -97,56 -145,56 -46,0 -85,-12 -116,-36 -31,-24 -42,-63 -34,-116l94 -579c18,-116 101,-173 248,-173 139,0 200,52 183,157l-26 165 -178 0 29 -179c2,-14 -6,-21 -25,-21 -18,0 -29,7 -31,21l-99 615c-2,14 6,22 24,22 19,0 29,-8 32,-22l27 -166 -39 0 22 -136 216 0 -71 440z"/>
  <polygon class="fil2" points="22619.47,13014.13 22423.47,13014.13 22563.47,12125.13 22758.47,12125.13 "/>
  <path class="fil2" d="M23757.47 13027.13l-194 0 5 -239 -87 0 -70 239 -195 0 286 -889 250 0 5 889zm-185 -362l13 -265 -68 265 55 0z"/>
  <path class="fil1" d="M22725.47 9778.13l0 0 20 424 63 1592 1049 2 1358 -2818 -737 4c-70,219 -580,1271 -745,1635l-217 433c-15,30 -63,24 -117,26l-140 -2095 -843 1c-104,338 -308,764 -450,1106 -78,189 -149,352 -224,537l-199 433c-12,26 -57,15 -107,12l-230 -2090 -707 -2 363 2790c78,43 146,27 252,26l791 1c85,-146 797,-1858 820,-2017z"/>
  <path class="fil1" d="M18302.47 9691.13c244,-27 525,-16 780,-11 294,7 499,-17 492,318 -4,198 -66,514 -109,699 -65,271 -125,351 -413,384 -229,27 -559,17 -795,12 -543,-12 -589,-110 -363,-1012 73,-287 100,-355 408,-390zm1996 149c69,-636 19,-836 -611,-884 -458,-35 -1068,-35 -1526,0 -541,42 -731,205 -865,686 -109,386 -189,853 -240,1276 -80,667 4,868 662,900 480,23 978,22 1459,-2 554,-28 747,-213 880,-685 114,-402 194,-860 241,-1291z"/>
  <path class="fil1" d="M10846.47 10850.13c-172,983 60,983 1251,983 931,1 1302,50 1477,-869 73,-379 113,-737 -226,-850 -674,-224 -1881,131 -1597,-397 137,-256 1174,-109 1271,-67l-4 223 668 -1c125,-829 -22,-932 -858,-933 -1160,-2 -1626,-129 -1796,969 -135,874 348,735 1034,787l668 33c313,24 145,360 59,410 -94,55 -319,38 -442,40 -888,15 -849,24 -837,-327l-668 -1z"/>
  <polygon class="fil1" points="17125.47,8977.13 16397.47,8991.13 16214.47,9985.13 14699.47,9984.13 14874.47,8977.13 14143.47,8994.13 13668.47,11793.13 14380.47,11793.13 14553.47,10777.13 16084.47,10776.13 15919.47,11794.13 16634.47,11792.13 "/>
 </g>
</svg>
